<?xml version="1.0" encoding="utf-8"?>
<!-- Generator: Adobe Illustrator 19.0.0, SVG Export Plug-In . SVG Version: 6.00 Build 0)  -->
<svg version="1.1" id="Layer_1" xmlns="http://www.w3.org/2000/svg" xmlns:xlink="http://www.w3.org/1999/xlink" x="0px" y="0px"
	 viewBox="0 0 1400 550" style="enable-background:new 0 0 1400 550;" xml:space="preserve">
<style type="text/css">
	.st0{fill:url(#XMLID_159_);}
	.st1{fill:url(#XMLID_161_);}
	.st2{fill:#FFFFFF;}
	.st3{fill:#A4CB7D;}
	.st4{fill:#81B84B;}
	.st5{fill:#8CBE5B;}
	.st6{fill:#00A3B3;}
	.st7{fill:#F6AA5F;}
	.st8{fill:#672B18;}
	.st9{fill:#00BED1;}
	.st10{fill:#EE724E;}
	.st11{fill:#80D1D9;}
	.st12{fill:#14AAB9;}
	.st13{fill:#B8D79A;}
	.st14{fill:#74B13A;}
	.st15{fill:#EE7753;}
	.st16{fill:#F4A189;}
	.st17{fill:#F6A658;}
	.st18{fill:#F9C28C;}
	.st19{fill:#EB5584;}
	.st20{fill:#F18AAA;}
	.st21{fill:#C22B62;}
</style>
<linearGradient id="XMLID_159_" gradientUnits="userSpaceOnUse" x1="700" y1="549.7998" x2="700" y2="-3.142668e-08">
	<stop  offset="0" style="stop-color:#E2F8FE"/>
	<stop  offset="1" style="stop-color:#06B7E9"/>
</linearGradient>
<rect id="XMLID_1_" class="st0" width="1400" height="549.8"/>
<linearGradient id="XMLID_161_" gradientUnits="userSpaceOnUse" x1="700" y1="549.7104" x2="700" y2="299.6176">
	<stop  offset="0" style="stop-color:#E2F8FE"/>
	<stop  offset="1" style="stop-color:#68D3F2"/>
</linearGradient>
<polygon id="XMLID_160_" class="st1" points="0,549.7 1400,549.7 1400,358.7 1359.9,331.8 1359.9,376.9 1345.2,376.9 1345.2,371.2 
	1327.2,371.2 1327.2,334.6 1301.7,334.6 1301.7,301.7 1292.7,301.7 1292.7,334.6 1267.1,334.6 1267.1,371.2 1253.5,371.2 
	1222.1,350.1 1222.1,331.8 1125.9,331.8 1125.9,396.3 1029.7,331.8 1029.7,461.9 994.3,461.9 994.3,347.1 924.5,347.1 924.5,393.7 
	911.5,385 911.5,382.7 909.4,383.6 832.2,331.8 832.2,376.9 817.5,376.9 817.5,371.2 799.5,371.2 799.5,334.6 773.9,334.6 
	773.9,301.7 764.9,301.7 764.9,334.6 739.4,334.6 739.4,371.2 725.8,371.2 694.3,350.1 694.3,331.8 598.2,331.8 598.2,396.3 
	502,331.8 502,461.9 457.9,461.9 457.9,344.1 389.5,344.1 389.5,389.8 376.7,381.2 376.7,379 374.7,379.9 299,329.2 299,373.3 
	284.6,373.3 284.6,367.7 267,367.7 267,331.9 241.9,331.9 241.9,299.6 233.1,299.6 233.1,331.9 208.1,331.9 208.1,367.7 
	194.8,367.7 163.9,347 163.9,329.2 69.7,329.2 69.7,392.3 0,345.6 "/>
<g id="XMLID_2_">
	<path id="XMLID_157_" class="st2" d="M445.5,402.5c-2.1,0-4,0.8-5.5,2.1c-2.2-4.1-6.5-6.8-11.5-6.8c-2.7,0-5.3,0.8-7.3,2.3
		c-3.6-6-10.2-10-17.8-10c-6.7,0-12.7,3.2-16.5,8.1c-1-0.2-2-0.4-3.1-0.4c-7.2,0-13,5.8-13,13h82.9
		C453.8,406.2,450.1,402.5,445.5,402.5z"/>
	<path id="XMLID_156_" class="st3" d="M586.6,497.7c-4.2,0-7.7,3.4-7.7,7.7v20c0,3.8,2.7,6.9,6.3,7.5v16.6h2.7v-16.6
		c3.6-0.6,6.3-3.8,6.3-7.5v-20C594.2,501.1,590.8,497.7,586.6,497.7z"/>
	<path id="XMLID_155_" class="st4" d="M575.9,497.7c-4.2,0-7.7,3.4-7.7,7.7v20c0,3.8,2.7,6.9,6.3,7.5v16.6h2.7v-16.6
		c3.6-0.6,6.3-3.8,6.3-7.5v-20C583.6,501.1,580.1,497.7,575.9,497.7z"/>
	<path id="XMLID_154_" class="st3" d="M987,497.7c-4.2,0-7.7,3.4-7.7,7.7v20c0,3.8,2.7,6.9,6.3,7.5v16.6h2.7v-16.6
		c3.6-0.6,6.3-3.8,6.3-7.5v-20C994.7,501.1,991.2,497.7,987,497.7z"/>
	<path id="XMLID_153_" class="st5" d="M507.3,497.7c-4.2,0-7.7,3.4-7.7,7.7v20c0,3.8,2.7,6.9,6.3,7.5v16.6h2.7v-16.6
		c3.6-0.6,6.3-3.8,6.3-7.5v-20C515,501.1,511.5,497.7,507.3,497.7z"/>
	<path id="XMLID_152_" class="st2" d="M696.1,421.4c-2.7,0-5.2,1-7.1,2.7c-2.8-5.2-8.3-8.8-14.7-8.8c-3.5,0-6.7,1.1-9.4,2.9
		c-4.7-7.7-13.1-12.9-22.8-12.9c-8.6,0-16.3,4.1-21.1,10.4c-1.3-0.3-2.6-0.5-3.9-0.5c-9.2,0-16.7,7.5-16.7,16.7h106.4
		C706.7,426.2,701.9,421.4,696.1,421.4z"/>
	<path id="XMLID_151_" class="st2" d="M984.1,510"/>
	<circle id="XMLID_150_" class="st2" cx="908.7" cy="414.7" r="4"/>
	<rect id="XMLID_149_" x="923" y="431.8" class="st6" width="8.1" height="8.1"/>
	<rect id="XMLID_148_" x="933.7" y="431.8" class="st6" width="8.1" height="8.1"/>
	<rect id="XMLID_147_" x="944.4" y="431.8" class="st2" width="8.1" height="8.1"/>
	<rect id="XMLID_146_" x="955.2" y="431.8" class="st6" width="8.1" height="8.1"/>
	<rect id="XMLID_145_" x="897.1" y="433.1" class="st7" width="79" height="116.5"/>
	<rect id="XMLID_144_" x="893.8" y="431.8" class="st8" width="85.5" height="31.7"/>
	<rect id="XMLID_143_" x="902.3" y="414.7" class="st8" width="12.7" height="23.1"/>
	<path id="XMLID_142_" class="st9" d="M910.2,443.2C910.2,443.2,910.2,443.1,910.2,443.2c0-1.9-2-3.4-4.4-3.4
		c-2.5,0-4.5,1.5-4.5,3.3c0,0,0,0.1,0,0.1h0v10.6h8.9L910.2,443.2L910.2,443.2z"/>
	<path id="XMLID_141_" class="st9" d="M930.8,443.2C930.8,443.2,930.8,443.1,930.8,443.2c0-1.9-2-3.4-4.4-3.4
		c-2.5,0-4.5,1.5-4.5,3.3c0,0,0,0.1,0,0.1h0v10.6h8.9L930.8,443.2L930.8,443.2z"/>
	<path id="XMLID_140_" class="st9" d="M951.3,443.2C951.3,443.2,951.3,443.1,951.3,443.2c0-1.9-2-3.4-4.4-3.4
		c-2.5,0-4.5,1.5-4.5,3.3c0,0,0,0.1,0,0.1h0v10.6h8.9L951.3,443.2L951.3,443.2z"/>
	<path id="XMLID_139_" class="st9" d="M971.9,443.2C971.9,443.2,971.9,443.1,971.9,443.2c0-1.9-2-3.4-4.4-3.4
		c-2.5,0-4.5,1.5-4.5,3.3c0,0,0,0.1,0,0.1h0v10.6h8.9L971.9,443.2L971.9,443.2z"/>
	<circle id="XMLID_138_" class="st2" cx="903.9" cy="403.6" r="3.3"/>
	<circle id="XMLID_137_" class="st2" cx="910.2" cy="396.1" r="3.3"/>
	<rect id="XMLID_136_" x="923" y="516.1" class="st2" width="44.1" height="33.5"/>
	<rect id="XMLID_135_" x="904.8" y="520.8" class="st8" width="13.5" height="28.8"/>
	<path id="XMLID_134_" class="st2" d="M919.9,536.1"/>
	<path id="XMLID_133_" class="st10" d="M970.5,516l-3.9-20.8h-22.4h-13.9h-23.2l-3.9,20.8c-0.1,0.3-0.2,0.6-0.2,0.9
		c0,1.4,1.2,2.6,2.6,2.6c1.4,0,2.6-1.2,2.6-2.6c0,1.4,1.2,2.6,2.6,2.6c1.4,0,2.6-1.2,2.6-2.6c0,1.4,1.2,2.6,2.6,2.6
		c1.4,0,2.6-1.2,2.6-2.6c0,1.4,1.2,2.6,2.6,2.6c1.4,0,2.6-1.2,2.6-2.6c0,1.4,1.2,2.6,2.6,2.6c1.4,0,2.6-1.2,2.6-2.6
		c0,1.4,1.2,2.6,2.6,2.6c1.4,0,2.6-1.2,2.6-2.6c0,1.4,1.2,2.6,2.6,2.6c1.4,0,2.6-1.2,2.6-2.6c0,1.4,1.2,2.6,2.6,2.6
		c1.4,0,2.6-1.2,2.6-2.6c0,1.4,1.2,2.6,2.6,2.6c1.4,0,2.6-1.2,2.6-2.6c0,1.4,1.2,2.6,2.6,2.6c1.4,0,2.6-1.2,2.6-2.6
		c0,1.4,1.2,2.6,2.6,2.6c1.4,0,2.6-1.2,2.6-2.6c0,1.4,1.2,2.6,2.6,2.6c1.4,0,2.6-1.2,2.6-2.6c0,1.4,1.2,2.6,2.6,2.6
		c1.4,0,2.6-1.2,2.6-2.6C970.6,516.6,970.6,516.3,970.5,516z"/>
	<rect id="XMLID_132_" x="907.4" y="475.6" class="st2" width="8.4" height="10.6"/>
	<rect id="XMLID_131_" x="932.4" y="475.6" class="st2" width="8.4" height="10.6"/>
	<rect id="XMLID_130_" x="957.4" y="475.6" class="st2" width="8.4" height="10.6"/>
	<circle id="XMLID_129_" class="st2" cx="1010.3" cy="414.7" r="4"/>
	<rect id="XMLID_128_" x="1024.6" y="431.8" class="st6" width="8.1" height="8.1"/>
	<rect id="XMLID_127_" x="1035.3" y="431.8" class="st6" width="8.1" height="8.1"/>
	<rect id="XMLID_126_" x="1046.1" y="431.8" class="st2" width="8.1" height="8.1"/>
	<rect id="XMLID_125_" x="1056.8" y="431.8" class="st6" width="8.1" height="8.1"/>
	<rect id="XMLID_124_" x="998.7" y="433.1" class="st11" width="79" height="116.5"/>
	<rect id="XMLID_123_" x="995.5" y="431.8" class="st8" width="85.5" height="31.7"/>
	<rect id="XMLID_122_" x="1004" y="414.7" class="st8" width="12.7" height="23.1"/>
	<path id="XMLID_121_" class="st9" d="M1011.9,443.2C1011.9,443.2,1011.9,443.1,1011.9,443.2c0-1.9-2-3.4-4.4-3.4
		c-2.5,0-4.5,1.5-4.5,3.3c0,0,0,0.1,0,0.1h0v10.6h8.9L1011.9,443.2L1011.9,443.2z"/>
	<path id="XMLID_120_" class="st9" d="M1032.4,443.2C1032.4,443.2,1032.4,443.1,1032.4,443.2c0-1.9-2-3.4-4.4-3.4s-4.5,1.5-4.5,3.3
		c0,0,0,0.1,0,0.1h0v10.6h8.9L1032.4,443.2L1032.4,443.2z"/>
	<path id="XMLID_119_" class="st9" d="M1052.9,443.2C1052.9,443.2,1052.9,443.1,1052.9,443.2c0-1.9-2-3.4-4.4-3.4
		c-2.5,0-4.5,1.5-4.5,3.3c0,0,0,0.1,0,0.1h0v10.6h8.9L1052.9,443.2L1052.9,443.2z"/>
	<path id="XMLID_118_" class="st9" d="M1073.5,443.2C1073.5,443.2,1073.5,443.1,1073.5,443.2c0-1.9-2-3.4-4.4-3.4s-4.5,1.5-4.5,3.3
		c0,0,0,0.1,0,0.1h0v10.6h8.9L1073.5,443.2L1073.5,443.2z"/>
	<circle id="XMLID_117_" class="st2" cx="1005.5" cy="403.6" r="3.3"/>
	<circle id="XMLID_116_" class="st2" cx="1011.9" cy="396.1" r="3.3"/>
	<rect id="XMLID_115_" x="1024.6" y="516.1" class="st2" width="44.1" height="33.5"/>
	<rect id="XMLID_114_" x="1006.4" y="520.8" class="st8" width="13.5" height="28.8"/>
	<path id="XMLID_113_" class="st2" d="M1021.6,536.1"/>
	<path id="XMLID_112_" class="st12" d="M1072.1,516l-3.9-20.8h-22.4h-13.9h-23.2l-3.9,20.8c-0.1,0.3-0.2,0.6-0.2,0.9
		c0,1.4,1.2,2.6,2.6,2.6c1.4,0,2.6-1.2,2.6-2.6c0,1.4,1.2,2.6,2.6,2.6c1.4,0,2.6-1.2,2.6-2.6c0,1.4,1.2,2.6,2.6,2.6
		c1.4,0,2.6-1.2,2.6-2.6c0,1.4,1.2,2.6,2.6,2.6c1.4,0,2.6-1.2,2.6-2.6c0,1.4,1.2,2.6,2.6,2.6c1.4,0,2.6-1.2,2.6-2.6
		c0,1.4,1.2,2.6,2.6,2.6c1.4,0,2.6-1.2,2.6-2.6c0,1.4,1.2,2.6,2.6,2.6c1.4,0,2.6-1.2,2.6-2.6c0,1.4,1.2,2.6,2.6,2.6s2.6-1.2,2.6-2.6
		c0,1.4,1.2,2.6,2.6,2.6c1.4,0,2.6-1.2,2.6-2.6c0,1.4,1.2,2.6,2.6,2.6c1.4,0,2.6-1.2,2.6-2.6c0,1.4,1.2,2.6,2.6,2.6
		c1.4,0,2.6-1.2,2.6-2.6c0,1.4,1.2,2.6,2.6,2.6s2.6-1.2,2.6-2.6c0,1.4,1.2,2.6,2.6,2.6s2.6-1.2,2.6-2.6
		C1072.2,516.6,1072.2,516.3,1072.1,516z"/>
	<rect id="XMLID_111_" x="1009" y="475.6" class="st2" width="8.4" height="10.6"/>
	<rect id="XMLID_110_" x="1034" y="475.6" class="st2" width="8.4" height="10.6"/>
	<rect id="XMLID_109_" x="1059" y="475.6" class="st2" width="8.4" height="10.6"/>
	<polygon id="XMLID_108_" class="st13" points="339.8,549.6 282.1,549.6 282.1,492.2 310.9,465.4 339.8,492.2 	"/>
	<g id="XMLID_106_">
		<polygon id="XMLID_107_" class="st8" points="342,497.2 310.9,469.4 279.9,497.2 276,492.8 310.9,461.4 345.9,492.8 		"/>
	</g>
	<rect id="XMLID_105_" x="292.8" y="526.5" class="st8" width="10.2" height="23.1"/>
	<rect id="XMLID_104_" x="309.5" y="526.5" class="st9" width="21.7" height="15.1"/>
	<rect id="XMLID_103_" x="290.2" y="503.5" class="st2" width="7.2" height="17.6"/>
	<rect id="XMLID_102_" x="302.4" y="503.5" class="st2" width="7.2" height="17.6"/>
	<rect id="XMLID_101_" x="314.6" y="503.5" class="st2" width="7.2" height="17.6"/>
	<rect id="XMLID_100_" x="326.7" y="503.5" class="st2" width="7.2" height="17.6"/>
	<circle id="XMLID_99_" class="st9" cx="311.2" cy="490.1" r="6.2"/>
	<rect id="XMLID_98_" x="310.3" y="480.2" class="st13" width="1.8" height="19.7"/>
	<rect id="XMLID_97_" x="301.3" y="489.2" class="st13" width="19.7" height="1.8"/>
	<rect id="XMLID_96_" x="290.2" y="516.7" class="st14" width="7.2" height="4.5"/>
	<rect id="XMLID_95_" x="302.4" y="516.7" class="st14" width="7.2" height="4.5"/>
	<rect id="XMLID_94_" x="314.6" y="516.7" class="st14" width="7.2" height="4.5"/>
	<rect id="XMLID_93_" x="326.7" y="516.7" class="st14" width="7.2" height="4.5"/>
	<polygon id="XMLID_92_" class="st15" points="418.2,549.6 360.5,549.6 360.5,492.2 389.4,465.4 418.2,492.2 	"/>
	<g id="XMLID_90_">
		<polygon id="XMLID_91_" class="st8" points="420.4,497.2 389.4,469.4 358.3,497.2 354.4,492.8 389.4,461.4 424.4,492.8 		"/>
	</g>
	<rect id="XMLID_89_" x="371.3" y="526.5" class="st8" width="10.2" height="23.1"/>
	<rect id="XMLID_88_" x="388" y="526.5" class="st9" width="21.7" height="15.1"/>
	<rect id="XMLID_87_" x="368.6" y="503.5" class="st2" width="7.2" height="17.6"/>
	<rect id="XMLID_86_" x="380.8" y="503.5" class="st2" width="7.2" height="17.6"/>
	<rect id="XMLID_85_" x="393" y="503.5" class="st2" width="7.2" height="17.6"/>
	<rect id="XMLID_84_" x="405.2" y="503.5" class="st2" width="7.2" height="17.6"/>
	<circle id="XMLID_83_" class="st9" cx="389.6" cy="490.1" r="6.2"/>
	<rect id="XMLID_82_" x="388.7" y="480.2" class="st15" width="1.8" height="19.7"/>
	<rect id="XMLID_81_" x="379.7" y="489.2" class="st15" width="19.7" height="1.8"/>
	<rect id="XMLID_80_" x="368.6" y="516.7" class="st16" width="7.2" height="4.5"/>
	<rect id="XMLID_79_" x="380.8" y="516.7" class="st16" width="7.2" height="4.5"/>
	<rect id="XMLID_78_" x="393" y="516.7" class="st16" width="7.2" height="4.5"/>
	<rect id="XMLID_77_" x="405.2" y="516.7" class="st16" width="7.2" height="4.5"/>
	<polygon id="XMLID_76_" class="st17" points="496.6,549.6 439,549.6 439,492.2 467.8,465.4 496.6,492.2 	"/>
	<g id="XMLID_74_">
		<polygon id="XMLID_75_" class="st8" points="498.9,497.2 467.8,469.4 436.8,497.2 432.8,492.8 467.8,461.4 502.8,492.8 		"/>
	</g>
	<rect id="XMLID_73_" x="449.7" y="526.5" class="st8" width="10.2" height="23.1"/>
	<rect id="XMLID_72_" x="466.4" y="526.5" class="st9" width="21.7" height="15.1"/>
	<rect id="XMLID_71_" x="447.1" y="503.5" class="st2" width="7.2" height="17.6"/>
	<rect id="XMLID_70_" x="459.3" y="503.5" class="st2" width="7.2" height="17.6"/>
	<rect id="XMLID_69_" x="471.4" y="503.5" class="st2" width="7.2" height="17.6"/>
	<rect id="XMLID_68_" x="483.6" y="503.5" class="st2" width="7.2" height="17.6"/>
	<circle id="XMLID_67_" class="st9" cx="468" cy="490.1" r="6.2"/>
	<rect id="XMLID_66_" x="467.1" y="480.2" class="st17" width="1.8" height="19.7"/>
	<rect id="XMLID_65_" x="458.2" y="489.2" class="st17" width="19.7" height="1.8"/>
	<rect id="XMLID_64_" x="447.1" y="516.7" class="st18" width="7.2" height="4.5"/>
	<rect id="XMLID_63_" x="459.3" y="516.7" class="st18" width="7.2" height="4.5"/>
	<rect id="XMLID_62_" x="471.4" y="516.7" class="st18" width="7.2" height="4.5"/>
	<rect id="XMLID_61_" x="483.6" y="516.7" class="st18" width="7.2" height="4.5"/>
	<g id="XMLID_44_">
		<polygon id="XMLID_60_" class="st19" points="575.1,549.6 517.4,549.6 517.4,492.2 546.3,465.4 575.1,492.2 		"/>
		<g id="XMLID_58_">
			<polygon id="XMLID_59_" class="st8" points="577.3,497.2 546.3,469.4 515.2,497.2 511.3,492.8 546.3,461.4 581.2,492.8 			"/>
		</g>
		<rect id="XMLID_57_" x="528.1" y="526.5" class="st8" width="10.2" height="23.1"/>
		<rect id="XMLID_56_" x="544.9" y="526.5" class="st9" width="21.7" height="15.1"/>
		<rect id="XMLID_55_" x="525.5" y="503.5" class="st2" width="7.2" height="17.6"/>
		<rect id="XMLID_54_" x="537.7" y="503.5" class="st2" width="7.2" height="17.6"/>
		<rect id="XMLID_53_" x="549.9" y="503.5" class="st2" width="7.2" height="17.6"/>
		<rect id="XMLID_52_" x="562.1" y="503.5" class="st2" width="7.2" height="17.6"/>
		<circle id="XMLID_51_" class="st9" cx="546.5" cy="490.1" r="6.2"/>
		<rect id="XMLID_50_" x="545.6" y="480.2" class="st19" width="1.8" height="19.7"/>
		<rect id="XMLID_49_" x="536.6" y="489.2" class="st19" width="19.7" height="1.8"/>
		<rect id="XMLID_48_" x="525.5" y="516.7" class="st20" width="7.2" height="4.5"/>
		<rect id="XMLID_47_" x="537.7" y="516.7" class="st20" width="7.2" height="4.5"/>
		<rect id="XMLID_46_" x="549.9" y="516.7" class="st20" width="7.2" height="4.5"/>
		<rect id="XMLID_45_" x="562.1" y="516.7" class="st20" width="7.2" height="4.5"/>
	</g>
	<path id="XMLID_43_" class="st14" d="M904.8,517c0-7.8-6.3-14.1-14.1-14.1c-7.8,0-14.1,6.3-14.1,14.1c0,7.2,5.5,13.2,12.5,14v18.7
		h3.2v-18.7C899.4,530.1,904.8,524.2,904.8,517z"/>
	<circle id="XMLID_42_" class="st2" cx="1113" cy="414.7" r="4"/>
	<rect id="XMLID_41_" x="1127.3" y="431.8" class="st6" width="8.1" height="8.1"/>
	<rect id="XMLID_40_" x="1138" y="431.8" class="st6" width="8.1" height="8.1"/>
	<rect id="XMLID_39_" x="1148.8" y="431.8" class="st2" width="8.1" height="8.1"/>
	<rect id="XMLID_38_" x="1159.5" y="431.8" class="st6" width="8.1" height="8.1"/>
	<rect id="XMLID_37_" x="1101.4" y="433.1" class="st19" width="79" height="116.5"/>
	<rect id="XMLID_36_" x="1098.2" y="431.8" class="st8" width="85.5" height="31.7"/>
	<rect id="XMLID_35_" x="1106.7" y="414.7" class="st8" width="12.7" height="23.1"/>
	<path id="XMLID_34_" class="st9" d="M1114.6,443.2C1114.6,443.2,1114.6,443.1,1114.6,443.2c0-1.9-2-3.4-4.4-3.4
		c-2.5,0-4.5,1.5-4.5,3.3c0,0,0,0.1,0,0.1h0v10.6h8.9L1114.6,443.2L1114.6,443.2z"/>
	<path id="XMLID_33_" class="st9" d="M1135.1,443.2C1135.1,443.2,1135.1,443.1,1135.1,443.2c0-1.9-2-3.4-4.4-3.4
		c-2.5,0-4.5,1.5-4.5,3.3c0,0,0,0.1,0,0.1h0v10.6h8.9L1135.1,443.2L1135.1,443.2z"/>
	<path id="XMLID_32_" class="st9" d="M1155.6,443.2C1155.6,443.2,1155.7,443.1,1155.6,443.2c0-1.9-2-3.4-4.4-3.4
		c-2.5,0-4.5,1.5-4.5,3.3c0,0,0,0.1,0,0.1h0v10.6h8.9L1155.6,443.2L1155.6,443.2z"/>
	<path id="XMLID_31_" class="st9" d="M1176.2,443.2C1176.2,443.2,1176.2,443.1,1176.2,443.2c0-1.9-2-3.4-4.4-3.4
		c-2.5,0-4.5,1.5-4.5,3.3c0,0,0,0.1,0,0.1h0v10.6h8.9L1176.2,443.2L1176.2,443.2z"/>
	<circle id="XMLID_30_" class="st2" cx="1108.2" cy="403.6" r="3.3"/>
	<circle id="XMLID_29_" class="st2" cx="1114.6" cy="396.1" r="3.3"/>
	<rect id="XMLID_28_" x="1127.3" y="516.1" class="st2" width="44.1" height="33.5"/>
	<rect id="XMLID_27_" x="1109.2" y="520.8" class="st8" width="13.5" height="28.8"/>
	<path id="XMLID_26_" class="st2" d="M1124.3,536.1"/>
	<path id="XMLID_25_" class="st21" d="M1174.8,516l-3.9-20.8h-22.4h-13.9h-23.2l-3.9,20.8c-0.1,0.3-0.2,0.6-0.2,0.9
		c0,1.4,1.2,2.6,2.6,2.6c1.4,0,2.6-1.2,2.6-2.6c0,1.4,1.2,2.6,2.6,2.6c1.4,0,2.6-1.2,2.6-2.6c0,1.4,1.2,2.6,2.6,2.6
		c1.4,0,2.6-1.2,2.6-2.6c0,1.4,1.2,2.6,2.6,2.6c1.4,0,2.6-1.2,2.6-2.6c0,1.4,1.2,2.6,2.6,2.6c1.4,0,2.6-1.2,2.6-2.6
		c0,1.4,1.2,2.6,2.6,2.6c1.4,0,2.6-1.2,2.6-2.6c0,1.4,1.2,2.6,2.6,2.6c1.4,0,2.6-1.2,2.6-2.6c0,1.4,1.2,2.6,2.6,2.6
		c1.4,0,2.6-1.2,2.6-2.6c0,1.4,1.2,2.6,2.6,2.6c1.4,0,2.6-1.2,2.6-2.6c0,1.4,1.2,2.6,2.6,2.6c1.4,0,2.6-1.2,2.6-2.6
		c0,1.4,1.2,2.6,2.6,2.6c1.4,0,2.6-1.2,2.6-2.6c0,1.4,1.2,2.6,2.6,2.6c1.4,0,2.6-1.2,2.6-2.6c0,1.4,1.2,2.6,2.6,2.6
		c1.4,0,2.6-1.2,2.6-2.6C1175,516.6,1174.9,516.3,1174.8,516z"/>
	<rect id="XMLID_24_" x="1111.7" y="475.6" class="st2" width="8.4" height="10.6"/>
	<rect id="XMLID_23_" x="1136.7" y="475.6" class="st2" width="8.4" height="10.6"/>
	<rect id="XMLID_22_" x="1161.7" y="475.6" class="st2" width="8.4" height="10.6"/>
	<path id="XMLID_21_" class="st14" d="M1109.2,517c0-7.8-6.3-14.1-14.1-14.1s-14.1,6.3-14.1,14.1c0,7.2,5.5,13.2,12.5,14v18.7h3.2
		v-18.7C1103.7,530.1,1109.2,524.2,1109.2,517z"/>
	<path id="XMLID_20_" class="st3" d="M371.3,517c0-7.8-6.3-14.1-14.1-14.1c-7.8,0-14.1,6.3-14.1,14.1c0,7.2,5.5,13.2,12.5,14v18.7
		h3.2v-18.7C365.8,530.1,371.3,524.2,371.3,517z"/>
	<path id="XMLID_19_" class="st14" d="M290,517c0-7.8-6.3-14.1-14.1-14.1c-7.8,0-14.1,6.3-14.1,14.1c0,7.2,5.5,13.2,12.5,14v18.7
		h3.2v-18.7C284.6,530.1,290,524.2,290,517z"/>
	<path id="XMLID_18_" class="st2" d="M1114.1,391.1c-2.1,0-4,0.8-5.5,2.1c-2.2-4.1-6.5-6.8-11.5-6.8c-2.7,0-5.2,0.8-7.3,2.3
		c-3.6-6-10.2-10-17.8-10c-6.7,0-12.7,3.2-16.5,8.1c-1-0.2-2-0.4-3.1-0.4c-7.2,0-13,5.8-13,13h82.9
		C1122.4,394.8,1118.7,391.1,1114.1,391.1z"/>
	<path id="XMLID_17_" class="st2" d="M290.9,435.2c-2.1,0-4,0.8-5.5,2.1c-2.2-4.1-6.5-6.8-11.5-6.8c-2.7,0-5.3,0.8-7.3,2.3
		c-3.6-6-10.2-10-17.8-10c-6.7,0-12.7,3.2-16.5,8.1c-1-0.2-2-0.4-3.1-0.4c-7.2,0-13,5.8-13,13h82.9
		C299.2,439,295.5,435.2,290.9,435.2z"/>
	<path id="XMLID_10_" class="st2" d="M280.5,524.7l-2.5,3.5v1.5h-4v-1.5l-2.5-3.5l-2.5,3.5v1.5h-4v-1.5l-2.5-3.5l-2.5,3.5v1.5h-4
		v-1.5l-2.5-3.5l-2.5,3.5v1.5h-4v-1.5l-2.5-3.5l-2.5,3.5v1.5h-4v-1.5l-2.5-3.5l-2.5,3.5v1.5v4.9v10.2v4.9h5.1h4h5.1h4h5.1h4h5.1h4
		h5.1h4h5.1v-4.9v-10.2v-4.9v-1.5L280.5,524.7z M237.6,544.7v-10.2h4v10.2H237.6z M246.7,544.7v-10.2h4v10.2H246.7z M255.8,544.7
		v-10.2h4v10.2H255.8z M264.9,544.7v-10.2h4v10.2H264.9z M277.9,544.7h-4v-10.2h4V544.7z"/>
	<path id="XMLID_3_" class="st2" d="M597.8,524.7l-2.5,3.5v1.5h-4v-1.5l-2.5-3.5l-2.5,3.5v1.5h-4v-1.5l-2.5-3.5l-2.5,3.5v1.5h-4
		v-1.5l-2.5-3.5l-2.5,3.5v1.5h-4v-1.5l-2.5-3.5l-2.5,3.5v1.5h-4v-1.5l-2.5-3.5l-2.5,3.5v1.5v4.9v10.2v4.9h5.1h4h5.1h4h5.1h4h5.1h4
		h5.1h4h5.1v-4.9v-10.2v-4.9v-1.5L597.8,524.7z M554.9,544.7v-10.2h4v10.2H554.9z M564,544.7v-10.2h4v10.2H564z M573.1,544.7v-10.2
		h4v10.2H573.1z M582.2,544.7v-10.2h4v10.2H582.2z M595.2,544.7h-4v-10.2h4V544.7z"/>
</g>
</svg>
