<?xml version="1.0" encoding="utf-8"?>
<!-- Generator: Adobe Illustrator 19.0.0, SVG Export Plug-In . SVG Version: 6.00 Build 0)  -->
<svg version="1.1" id="Layer_1" xmlns="http://www.w3.org/2000/svg" xmlns:xlink="http://www.w3.org/1999/xlink" x="0px" y="0px"
	 viewBox="0 0 637.1 232" style="enable-background:new 0 0 637.1 232;" xml:space="preserve">
<style type="text/css">
	.st0{fill:#FFFFFF;}
	.st1{fill:url(#SVGID_1_);}
	.st2{fill:url(#SVGID_2_);}
	.st3{fill:url(#SVGID_3_);}
	.st4{fill:url(#SVGID_4_);}
	.st5{fill:url(#SVGID_5_);}
	.st6{fill:url(#SVGID_6_);}
	.st7{fill:url(#SVGID_7_);}
	.st8{fill:url(#SVGID_8_);}
	.st9{fill:url(#SVGID_9_);}
	.st10{fill:url(#SVGID_10_);}
	.st11{fill:url(#SVGID_11_);}
	.st12{fill:url(#SVGID_12_);}
</style>
<circle class="st0" cx="115.8" cy="115" r="116"/>
<g>
	<g>
		<path class="st0" d="M271.4,34.6h7.2c5.5,0,9.1,2.8,9.1,8.3c0,5.5-4.1,8.3-9.4,8.3h-4V64h-2.9V34.6z M274.3,48.7h2
			c4.4,0,8.5-0.5,8.5-5.8c0-3.7-2.1-5.8-5.8-5.8h-4.7V48.7z"/>
		<path class="st0" d="M313.6,34.6h7.6c5.2,0,8.6,2.2,8.6,7.6c0,3.8-2.9,6.3-6.5,6.8V49c2.4,0.3,2.9,1.6,3.8,3.5l5,11.4h-3.2
			l-4.3-9.9c-1.7-3.8-2.9-3.9-5.7-3.9h-2.4V64h-2.9V34.6z M316.5,47.6h3.1c3.4,0,7.3-1.3,7.3-5.4c0-4.8-3.4-5.1-7.4-5.1h-3V47.6z"/>
		<path class="st0" d="M369.6,34c8.8,0,13,7.2,12.9,15.2c-0.1,9-4.5,15.2-12.9,15.2c-8.5,0-12.8-6.2-12.9-15.2
			C356.6,41.3,360.8,34,369.6,34z M359.6,49.3c0,6.2,3.1,12.7,10,12.7c6.9,0,10-6.4,10-12.7c0-6.2-3.1-12.7-10-12.7
			C362.7,36.6,359.6,43,359.6,49.3z"/>
		<path class="st0" d="M429.6,50.6h-6.8V48h9.7v14.6c-3,1.3-5.9,1.8-9.1,1.8c-9.3,0-14.8-6.1-14.8-15.2c0-8.9,5.7-15.2,14.8-15.2
			c2.2,0,5.9,0.4,7.9,1.4l-0.3,2.7c-2.3-1.3-5-1.6-7.5-1.6c-7.6,0-11.9,5.4-11.9,12.7c0,7.4,4.2,12.7,11.9,12.7
			c1.8,0,4.8-0.2,6.2-1.1V50.6z"/>
		<path class="st0" d="M461.1,34.6h7.6c5.2,0,8.6,2.2,8.6,7.6c0,3.8-2.9,6.3-6.5,6.8V49c2.4,0.3,2.9,1.6,3.8,3.5l5,11.4h-3.2
			l-4.3-9.9c-1.7-3.8-2.9-3.9-5.7-3.9H464V64h-2.9V34.6z M464,47.6h3.1c3.4,0,7.3-1.3,7.3-5.4c0-4.8-3.4-5.1-7.4-5.1h-3V47.6z"/>
		<path class="st0" d="M514.4,34.6h3.3L529.4,64h-3l-3.2-7.9h-14.8l-3.2,7.9h-2.8L514.4,34.6z M515.9,37.3l-6.4,16.2h12.8
			L515.9,37.3z"/>
		<path class="st0" d="M554.6,34.6h4.5l10.7,25.9l10.8-25.9h4.2V64h-2.9V37.5h-0.1L571.1,64h-2.5l-11-26.5h-0.1V64h-2.9V34.6z"/>
		<path class="st0" d="M622.1,34.6h3.3L637.1,64h-3l-3.2-7.9h-14.8l-3.2,7.9h-2.8L622.1,34.6z M623.5,37.3l-6.4,16.2h12.8
			L623.5,37.3z"/>
		<path class="st0" d="M302.9,126.6c-2.7,0.6-5.6,1.2-8.4,1.2c-11.9,0-20.2-6-20.2-18.4c0-12.6,7.7-19.6,20.2-19.6
			c2.4,0,5.6,0.5,8.3,1.5l-0.5,6.2c-2.8-1.6-5.3-1.9-8-1.9c-7.6,0-12.3,5.8-12.3,13.3c0,7.5,4.6,13.1,12.5,13.1
			c2.9,0,6.3-0.6,8.1-1.5L302.9,126.6z"/>
		<path class="st0" d="M331.4,90.4h7.4v36.8h-7.4V90.4z"/>
		<path class="st0" d="M370.4,90.4h10.1c11.3,0,21.2,3.8,21.2,18.4c0,14.6-10,18.4-21.2,18.4h-10.1V90.4z M377.7,121.4h4.1
			c6.2,0,12.1-4.6,12.1-12.6c0-8-6-12.6-12.1-12.6h-4.1V121.4z"/>
		<path class="st0" d="M442.6,90.4h8.3l14.4,36.8h-8.2l-3.2-8.4h-14.9l-3.2,8.4h-7.6L442.6,90.4z M446.7,97.8h-0.1l-5.3,15.2H452
			L446.7,97.8z"/>
		<path class="st0" d="M493.8,90.4h10.1c11.3,0,21.2,3.8,21.2,18.4c0,14.6-10,18.4-21.2,18.4h-10.1V90.4z M501.2,121.4h4.1
			c6.2,0,12.1-4.6,12.1-12.6c0-8-6-12.6-12.1-12.6h-4.1V121.4z"/>
		<path class="st0" d="M555.5,90.4h21.7v5.8h-14.3v9.1H576v5.8h-13.1v10.3h14.4v5.8h-21.8V90.4z"/>
		<path class="st0" d="M628.2,97.1c-2.3-1-4.9-1.6-7.5-1.6c-2.5,0-5.8,1.1-5.8,5.1c0,6.4,16.1,3.7,16.1,16c0,8.1-6.4,11.1-13.8,11.1
			c-4,0-5.8-0.5-9.4-1.4l0.7-6.6c2.5,1.4,5.4,2.3,8.3,2.3c2.8,0,6.5-1.4,6.5-4.7c0-7-16.1-4.1-16.1-16.3c0-8.2,6.4-11.2,12.9-11.2
			c3.2,0,6.1,0.4,8.8,1.3L628.2,97.1z"/>
		<path class="st0" d="M295.7,160.3c-2.3-1-4.9-1.6-7.5-1.6c-2.5,0-5.8,1.1-5.8,5.1c0,6.4,16.1,3.7,16.1,16
			c0,8.1-6.4,11.1-13.8,11.1c-4,0-5.8-0.5-9.4-1.4l0.7-6.6c2.5,1.4,5.4,2.3,8.3,2.3c2.8,0,6.5-1.4,6.5-4.7c0-7-16.1-4.1-16.1-16.3
			c0-8.2,6.4-11.2,12.9-11.2c3.2,0,6.1,0.4,8.8,1.3L295.7,160.3z"/>
		<path class="st0" d="M305,153.6h7.4v21.2c0,6.3,2,10.4,7.6,10.4c5.6,0,7.6-4.1,7.6-10.4v-21.2h7.4v23.5c0,9.8-5.6,13.9-15,13.9
			c-9.4,0-15-4.1-15-13.9V153.6z"/>
		<path class="st0" d="M363.1,160.3c-2.3-1-4.9-1.6-7.5-1.6c-2.5,0-5.8,1.1-5.8,5.1c0,6.4,16.1,3.7,16.1,16
			c0,8.1-6.4,11.1-13.8,11.1c-4,0-5.8-0.5-9.4-1.4l0.7-6.6c2.5,1.4,5.4,2.3,8.3,2.3c2.8,0,6.5-1.4,6.5-4.7c0-7-16.1-4.1-16.1-16.3
			c0-8.2,6.4-11.2,12.8-11.2c3.2,0,6.1,0.4,8.8,1.3L363.1,160.3z"/>
		<path class="st0" d="M379.3,159.4h-10.5v-5.8h28.4v5.8h-10.5v31h-7.4V159.4z"/>
		<path class="st0" d="M401.9,153.6h21.7v5.8h-14.3v9.1h13.1v5.8h-13.1v10.3h14.4v5.8h-21.8V153.6z"/>
		<path class="st0" d="M430.8,153.6h9.1l14,27.5h0.1v-27.5h7.1v36.8h-9l-14.1-27.5h-0.1v27.5h-7.1V153.6z"/>
		<path class="st0" d="M475.8,159.4h-10.5v-5.8h28.4v5.8h-10.5v31h-7.4V159.4z"/>
		<path class="st0" d="M504.8,153.6h8.3l14.4,36.8h-8.2l-3.2-8.4h-14.9l-3.2,8.4h-7.6L504.8,153.6z M508.8,161h-0.1l-5.3,15.2h10.7
			L508.8,161z M509,143.5h7.2l-7.2,7.7h-4.4L509,143.5z"/>
		<path class="st0" d="M525.9,153.6h7.9l9.4,28.9h0.1l9.3-28.9h7.3l-12.4,36.8h-9.1L525.9,153.6z"/>
		<path class="st0" d="M564.7,153.6h21.7v5.8h-14.3v9.1h13.1v5.8h-13.1v10.3h14.4v5.8h-21.8V153.6z"/>
		<path class="st0" d="M593.4,153.6h7.4v36.8h-7.4V153.6z"/>
		<path class="st0" d="M628.4,160.3c-2.3-1-4.9-1.6-7.5-1.6c-2.5,0-5.8,1.1-5.8,5.1c0,6.4,16.1,3.7,16.1,16
			c0,8.1-6.4,11.1-13.8,11.1c-4,0-5.8-0.5-9.4-1.4l0.7-6.6c2.5,1.4,5.4,2.3,8.3,2.3c2.8,0,6.5-1.4,6.5-4.7c0-7-16.1-4.1-16.1-16.3
			c0-8.2,6.4-11.2,12.8-11.2c3.2,0,6.1,0.4,8.8,1.3L628.4,160.3z"/>
	</g>
</g>
<g>
	<g>
		<g>
			<g>
				
					<linearGradient id="SVGID_1_" gradientUnits="userSpaceOnUse" x1="-620.7613" y1="130.237" x2="-520.1208" y2="130.237" gradientTransform="matrix(-0.7071 0.7071 -0.7071 -0.7071 -212.7875 664.2662)">
					<stop  offset="0.3" style="stop-color:#F47621"/>
					<stop  offset="0.45" style="stop-color:#F4772D"/>
					<stop  offset="1" style="stop-color:#FFFFFF"/>
				</linearGradient>
				<path class="st1" d="M115.8,115c-17.1,71.2-71.2,71.2-71.2,71.2l0,0c13,13,28.6,21.6,45.1,26.1c0,0,0,0,0,0
					S136.6,185.2,115.8,115z"/>
				
					<linearGradient id="SVGID_2_" gradientUnits="userSpaceOnUse" x1="-512.2842" y1="-379.0644" x2="-428.2924" y2="-341.6676" gradientTransform="matrix(-0.2588 0.9659 -0.9659 -0.2588 -351.2638 537.3226)">
					<stop  offset="0.3" style="stop-color:#FCB316"/>
					<stop  offset="0.45" style="stop-color:#FCB33F"/>
					<stop  offset="1" style="stop-color:#FFFFFF"/>
				</linearGradient>
				<path class="st2" d="M115.8,115c20.8,70.2-26,97.2-26,97.2h0c17.7,4.7,35.6,4.5,52.1,0c0,0,0,0,0,0S168.9,165.4,115.8,115z"/>
				
					<linearGradient id="SVGID_3_" gradientUnits="userSpaceOnUse" x1="-182.6097" y1="-764.8917" x2="-99.9523" y2="-726.3492" gradientTransform="matrix(0.2588 0.9659 -0.9659 0.2588 -535.1199 496.5047)">
					<stop  offset="0.3" style="stop-color:#FFF200"/>
					<stop  offset="1" style="stop-color:#FFFFFF"/>
				</linearGradient>
				<path class="st3" d="M115.8,115c53.1,50.4,26.1,97.2,26.1,97.2h0c17.7-4.7,33-13.9,45.1-26c0,0,0,0,0,0S187,132.1,115.8,115z"/>
				
					<linearGradient id="SVGID_4_" gradientUnits="userSpaceOnUse" x1="253.1584" y1="-898.9716" x2="353.7892" y2="-898.9716" gradientTransform="matrix(0.7071 0.7071 -0.7071 0.7071 -680.5969 553.4309)">
					<stop  offset="0.3" style="stop-color:#DFE21D"/>
					<stop  offset="0.45" style="stop-color:#DEE34A"/>
					<stop  offset="1" style="stop-color:#FFFFFF"/>
				</linearGradient>
				<path class="st4" d="M115.8,115c71.1,17.1,71.2,71.2,71.2,71.2h0c13-13,21.6-28.6,26-45.1c0,0,0,0,0,0S186,94.2,115.8,115z"/>
				
					<linearGradient id="SVGID_5_" gradientUnits="userSpaceOnUse" x1="742.6301" y1="-822.0327" x2="843.2604" y2="-822.0327" gradientTransform="matrix(0.9659 0.2588 -0.2588 0.9659 -807.5408 691.9072)">
					<stop  offset="0.3" style="stop-color:#B7D433"/>
					<stop  offset="0.45" style="stop-color:#B6D443"/>
					<stop  offset="1" style="stop-color:#FFFFFF"/>
				</linearGradient>
				<path class="st5" d="M115.8,115c70.1-20.8,97.2,26,97.2,26h0c4.7-17.7,4.5-35.6,0-52.1c0,0,0,0,0,0S166.2,61.9,115.8,115z"/>
				
					<linearGradient id="SVGID_6_" gradientUnits="userSpaceOnUse" x1="1128.2651" y1="-511.1215" x2="1228.9034" y2="-511.1215" gradientTransform="matrix(0.9659 -0.2588 0.2588 0.9659 -848.3569 875.7605)">
					<stop  offset="0.45" style="stop-color:#8DC63F"/>
					<stop  offset="1" style="stop-color:#FFFFFF"/>
				</linearGradient>
				<path class="st6" d="M115.8,115c50.4-53.1,97.2-26,97.2-26v0c-4.7-17.7-13.9-33-26-45.1c0,0,0,0,0,0S132.9,43.8,115.8,115z"/>
			</g>
			<g>
				
					<linearGradient id="SVGID_7_" gradientUnits="userSpaceOnUse" x1="1330.1951" y1="-142.9364" x2="1430.8358" y2="-142.9364" gradientTransform="matrix(0.7071 -0.7071 0.7071 0.7071 -741.9266 1138.4153)">
					<stop  offset="0.45" style="stop-color:#689071"/>
					<stop  offset="1" style="stop-color:#FFFFFF"/>
				</linearGradient>
				<path class="st7" d="M115.8,115C132.9,43.8,187,43.8,187,43.8v0c-13-13-28.6-21.6-45.1-26.1c0,0,0,0,0,0S95,44.8,115.8,115z"/>
				
					<linearGradient id="SVGID_8_" gradientUnits="userSpaceOnUse" x1="1297.3531" y1="371.265" x2="1397.9952" y2="371.265" gradientTransform="matrix(0.2588 -0.9659 0.9659 0.2588 -603.4498 1265.3629)">
					<stop  offset="0.45" style="stop-color:#476287"/>
					<stop  offset="1" style="stop-color:#FFFFFF"/>
				</linearGradient>
				<path class="st8" d="M115.8,115c-20.8-70.2,26-97.2,26.1-97.2h0c-17.7-4.7-35.5-4.5-52.1,0c0,0,0,0,0,0S62.7,64.6,115.8,115z"/>
				
					<linearGradient id="SVGID_9_" gradientUnits="userSpaceOnUse" x1="1012.0637" y1="799.6732" x2="1112.7041" y2="799.6732" gradientTransform="matrix(-0.2588 -0.9659 0.9659 -0.2588 -419.5948 1306.1753)">
					<stop  offset="0.45" style="stop-color:#2E3192"/>
					<stop  offset="1" style="stop-color:#FFFFFF"/>
				</linearGradient>
				<path class="st9" d="M115.8,115c-53.1-50.4-26-97.2-26-97.2v0c-17.7,4.8-33,13.9-45.1,26v0C44.7,43.8,44.7,97.9,115.8,115z"/>
				
					<linearGradient id="SVGID_10_" gradientUnits="userSpaceOnUse" x1="526.327" y1="1051.9941" x2="626.9671" y2="1051.9941" gradientTransform="matrix(-0.7071 -0.7071 0.7071 -0.7071 -274.1168 1249.2533)">
					<stop  offset="0.45" style="stop-color:#782E71"/>
					<stop  offset="1" style="stop-color:#FFFFFF"/>
				</linearGradient>
				<path class="st10" d="M115.8,115C44.7,97.9,44.7,43.8,44.7,43.8h0c-13,13-21.6,28.6-26.1,45.1c0,0,0,0,0,0S45.7,135.8,115.8,115
					z"/>
				
					<linearGradient id="SVGID_11_" gradientUnits="userSpaceOnUse" x1="3.6769" y1="1004.1643" x2="104.3207" y2="1004.1643" gradientTransform="matrix(-0.9659 -0.2588 0.2588 -0.9659 -147.1749 1110.775)">
					<stop  offset="0.45" style="stop-color:#B22850"/>
					<stop  offset="1" style="stop-color:#FFFFFF"/>
				</linearGradient>
				<path class="st11" d="M115.8,115c-70.2,20.8-97.2-26-97.2-26v0c-4.7,17.7-4.5,35.6,0,52.1c0,0,0,0,0,0S65.5,168.1,115.8,115z"/>
				
					<linearGradient id="SVGID_12_" gradientUnits="userSpaceOnUse" x1="-424.7481" y1="700.9758" x2="-324.107" y2="700.9758" gradientTransform="matrix(-0.9659 0.2588 -0.2588 -0.9659 -106.3558 926.921)">
					<stop  offset="0.45" style="stop-color:#ED1C24"/>
					<stop  offset="1" style="stop-color:#FFFFFF"/>
				</linearGradient>
				<path class="st12" d="M115.8,115c-50.4,53.1-97.2,26.1-97.2,26.1l0,0c4.7,17.7,13.9,33,26,45.1h0
					C44.7,186.2,98.7,186.2,115.8,115z"/>
			</g>
		</g>
	</g>
</g>
</svg>
