<?xml version="1.0" encoding="utf-8"?>
<!-- Generator: Adobe Illustrator 19.0.0, SVG Export Plug-In . SVG Version: 6.00 Build 0)  -->
<svg version="1.1" id="Layer_1" xmlns="http://www.w3.org/2000/svg" xmlns:xlink="http://www.w3.org/1999/xlink" x="0px" y="0px"
	 viewBox="-270 166 300 263.3" style="enable-background:new -270 166 300 263.3;" xml:space="preserve">
<style type="text/css">
	.st0{fill:#FFFFFF;}
	.st1{fill:#CC6600;}
	.st2{fill:#5E3908;}
	.st3{fill:#38BC30;}
	.st4{opacity:0.27;fill:url(#SVGID_1_);}
	.st5{fill:#3A7A35;}
	.st6{fill:url(#SVGID_2_);}
	.st7{fill:url(#SVGID_3_);}
	.st8{fill:url(#SVGID_4_);}
	.st9{fill:url(#SVGID_5_);}
	.st10{fill:url(#SVGID_6_);}
	.st11{fill:url(#SVGID_7_);}
	.st12{fill:url(#SVGID_8_);}
	.st13{fill:url(#SVGID_9_);}
	.st14{fill:url(#SVGID_10_);}
	.st15{fill:url(#SVGID_11_);}
	.st16{fill:url(#SVGID_12_);}
	.st17{fill:url(#SVGID_13_);}
	.st18{fill:#FF9900;}
</style>
<circle class="st0" cx="-118.1" cy="258.8" r="57"/>
<g>
	<polyline class="st1" points="-217.3,335.6 -229.3,313.5 -181.9,313.5 -158.5,357.6 -229.3,357.6 -217.3,335.6 	"/>
	<polyline class="st1" points="-27.1,335.6 -16,313.5 -60,313.5 -81.8,357.6 -16,357.6 -27.1,335.6 	"/>
	<polygon class="st2" points="-209.7,325.8 -192.8,318.8 -49.7,318.8 -33.6,325.8 	"/>
	<g>
		<g>
			<g>
				<path class="st3" d="M-39.7,215.5c-15-29.2-45.1-49.9-80.4-49.9s-90.3,29.7-90.3,91c0,14.8,3.6,28.8,9.9,41.1
					c15,29.2,80.4,102.7,80.4,102.7s90.3-94,90.3-143.8C-29.8,241.9-33.3,227.9-39.7,215.5z M-120.1,302c-25,0-45.3-20.3-45.3-45.3
					c0-18.9,11.6-35.1,28.1-41.9c5.3-2.2,11.1-3.4,17.2-3.4c25,0,45.3,19.7,45.3,44.7c0,18.9-11.6,35.8-28.1,42.6
					C-108.2,300.8-114,302-120.1,302z M-52.5,265.1c0.1-0.1,0.2-0.3,0.3-0.4v0.1C-52.3,264.9-52.4,265-52.5,265.1z M-53.4,266.6
					c0-0.1,0.1-0.1,0.1-0.2C-53.3,266.4-53.4,266.5-53.4,266.6z"/>
				
					<radialGradient id="SVGID_1_" cx="-119.1142" cy="685.1256" r="113.5" gradientTransform="matrix(1 0 0 6.782680e-02 0 373.1117)" gradientUnits="userSpaceOnUse">
					<stop  offset="0" style="stop-color:#000000"/>
					<stop  offset="1" style="stop-color:#000000;stop-opacity:0"/>
				</radialGradient>
				<ellipse class="st4" cx="-119.1" cy="419.6" rx="113.5" ry="7.7"/>
			</g>
			<path class="st5" d="M-120.1,211.3c25,0,45.4,19.7,45.4,44.7c0,18.9-11.7,35.8-28.2,42.6c-5.3,2.2-11.1,3.4-17.2,3.4
				c-25,0-45.4-20.4-45.4-45.4c0-18.9,11.7-35.2,28.2-42C-132,212.5-126.2,211.3-120.1,211.3 M-120.1,197.3
				c-7.8,0-15.4,1.5-22.5,4.5c-22.3,9.2-36.8,30.7-36.8,54.9c0,32.7,26.6,59.3,59.3,59.3c7.8,0,15.4-1.5,22.6-4.5
				c22-9.1,36.8-31.4,36.8-55.5C-60.8,223.7-87.4,197.3-120.1,197.3L-120.1,197.3z"/>
			<g>
				<g>
					<g>
						<g>
							
								<linearGradient id="SVGID_2_" gradientUnits="userSpaceOnUse" x1="-2139.7527" y1="757.3121" x2="-2099.3057" y2="757.3121" gradientTransform="matrix(-0.7071 0.7071 0.7071 0.7071 -2161.4719 1242.2224)">
								<stop  offset="0.3" style="stop-color:#F37621"/>
								<stop  offset="0.45" style="stop-color:#F3762D"/>
								<stop  offset="1" style="stop-color:#FFFFFF"/>
							</linearGradient>
							<path class="st6" d="M-120.3,257.4c-6.9,28.6-28.6,28.6-28.6,28.6l0,0c5.2,5.2,11.5,8.7,18.1,10.5l0,0
								C-130.8,296.5-111.9,285.6-120.3,257.4z"/>
							
								<linearGradient id="SVGID_3_" gradientUnits="userSpaceOnUse" x1="-1722.3721" y1="1468.1359" x2="-1688.6462" y2="1453.1198" gradientTransform="matrix(-0.2588 0.9659 0.9659 0.2588 -1971.4375 1551.3153)">
								<stop  offset="0.3" style="stop-color:#FBB216"/>
								<stop  offset="0.45" style="stop-color:#FBB33E"/>
								<stop  offset="1" style="stop-color:#FFFFFF"/>
							</linearGradient>
							<path class="st7" d="M-120.3,257.4c8.4,28.2-10.5,39-10.5,39l0,0c7.1,1.9,14.3,1.8,20.9,0l0,0
								C-109.9,296.4-98.9,277.7-120.3,257.4z"/>
							
								<linearGradient id="SVGID_4_" gradientUnits="userSpaceOnUse" x1="-1012.817" y1="1874.9912" x2="-979.613" y2="1859.5084" gradientTransform="matrix(0.2588 0.9659 0.9659 -0.2588 -1652.824 1723.8665)">
								<stop  offset="0.3" style="stop-color:#FFF100"/>
								<stop  offset="1" style="stop-color:#FFFFFF"/>
							</linearGradient>
							<path class="st8" d="M-120.2,257.5c21.3,20.2,10.5,39,10.5,39l0,0c7.1-1.9,13.3-5.6,18.1-10.5l0,0
								C-91.6,286-91.7,264.3-120.2,257.5z"/>
							
								<linearGradient id="SVGID_5_" gradientUnits="userSpaceOnUse" x1="-226.8095" y1="1844" x2="-186.3626" y2="1844" gradientTransform="matrix(0.7071 0.7071 0.7071 -0.7071 -1256.421 1714.3595)">
								<stop  offset="0.3" style="stop-color:#DEE11D"/>
								<stop  offset="0.45" style="stop-color:#DDE249"/>
								<stop  offset="1" style="stop-color:#FFFFFF"/>
							</linearGradient>
							<path class="st9" d="M-120.2,257.5c28.6,6.9,28.6,28.6,28.6,28.6l0,0c5.2-5.2,8.7-11.5,10.5-18.1l0,0
								C-81.1,268-92.1,249.1-120.2,257.5z"/>
							
								<linearGradient id="SVGID_6_" gradientUnits="userSpaceOnUse" x1="471.0388" y1="1448.1285" x2="511.4287" y2="1448.1285" gradientTransform="matrix(0.9659 0.2588 0.2588 -0.9659 -947.3286 1524.3251)">
								<stop  offset="0.3" style="stop-color:#B7D333"/>
								<stop  offset="0.45" style="stop-color:#B6D343"/>
								<stop  offset="1" style="stop-color:#FFFFFF"/>
							</linearGradient>
							<path class="st10" d="M-120.2,257.5c28.2-8.4,39,10.5,39,10.5l0,0c1.9-7.1,1.8-14.3,0-20.9l0,0
								C-81.2,247.1-100,236.1-120.2,257.5z"/>
							
								<linearGradient id="SVGID_7_" gradientUnits="userSpaceOnUse" x1="877.7199" y1="756.9208" x2="918.1098" y2="756.9208" gradientTransform="matrix(0.9659 -0.2588 -0.2588 -0.9659 -774.7756 1205.7087)">
								<stop  offset="0.45" style="stop-color:#8BC53F"/>
								<stop  offset="1" style="stop-color:#FFFFFF"/>
							</linearGradient>
							<path class="st11" d="M-120.2,257.5c20.2-21.3,39-10.5,39-10.5l0,0c-1.9-7.1-5.6-13.3-10.4-18.1l0,0
								C-91.6,228.9-113.4,228.9-120.2,257.5z"/>
						</g>
						<g>
							
								<linearGradient id="SVGID_8_" gradientUnits="userSpaceOnUse" x1="907.6549" y1="48.8646" x2="948.1018" y2="48.8646" gradientTransform="matrix(0.7071 -0.7071 -0.7071 -0.7071 -734.7784 926.4835)">
								<stop  offset="0.45" style="stop-color:#678F71"/>
								<stop  offset="1" style="stop-color:#FFFFFF"/>
							</linearGradient>
							<path class="st12" d="M-120.2,257.5c6.9-28.6,28.6-28.6,28.6-28.6l0,0c-5.2-5.2-11.5-8.7-18.1-10.5l0,0
								C-109.7,218.4-128.6,229.3-120.2,257.5z"/>
							
								<linearGradient id="SVGID_9_" gradientUnits="userSpaceOnUse" x1="555.9261" y1="-673.752" x2="596.316" y2="-673.752" gradientTransform="matrix(0.2588 -0.9659 -0.9659 -0.2588 -924.8125 617.3947)">
								<stop  offset="0.45" style="stop-color:#476287"/>
								<stop  offset="1" style="stop-color:#FFFFFF"/>
							</linearGradient>
							<path class="st13" d="M-120.2,257.5c-8.4-28.2,10.5-39,10.5-39l0,0c-7.1-1.9-14.3-1.8-20.9,0l0,0
								C-130.6,218.5-141.6,237.2-120.2,257.5z"/>
							
								<linearGradient id="SVGID_10_" gradientUnits="userSpaceOnUse" x1="-109.6508" y1="-1123.0696" x2="-69.2609" y2="-1123.0696" gradientTransform="matrix(-0.2588 -0.9659 -0.9659 0.2588 -1243.4271 444.838)">
								<stop  offset="0.45" style="stop-color:#2E3191"/>
								<stop  offset="1" style="stop-color:#FFFFFF"/>
							</linearGradient>
							<path class="st14" d="M-120.3,257.4c-21.3-20.2-10.5-39-10.5-39l0,0c-7.1,1.9-13.3,5.6-18.1,10.5l0,0
								C-148.8,228.9-148.8,250.6-120.3,257.4z"/>
							
								<linearGradient id="SVGID_11_" gradientUnits="userSpaceOnUse" x1="-935.2643" y1="-1203.4731" x2="-894.8174" y2="-1203.4731" gradientTransform="matrix(-0.7071 -0.7071 -0.7071 0.7071 -1639.829 454.3491)">
								<stop  offset="0.45" style="stop-color:#782E71"/>
								<stop  offset="1" style="stop-color:#FFFFFF"/>
							</linearGradient>
							<path class="st15" d="M-120.2,257.4c-28.6-6.9-28.6-28.6-28.6-28.6l0,0c-5.2,5.2-8.7,11.5-10.5,18.1l0,0
								C-159.3,246.9-148.4,265.8-120.2,257.4z"/>
							
								<linearGradient id="SVGID_12_" gradientUnits="userSpaceOnUse" x1="-1666.3104" y1="-836.8029" x2="-1625.8812" y2="-836.8029" gradientTransform="matrix(-0.9659 -0.2588 -0.2588 0.9659 -1948.9236 644.3817)">
								<stop  offset="0.45" style="stop-color:#B12850"/>
								<stop  offset="1" style="stop-color:#FFFFFF"/>
							</linearGradient>
							<path class="st16" d="M-120.2,257.4c-28.2,8.4-39.1-10.5-39.1-10.5l0,0c-1.9,7.1-1.8,14.3,0,20.9l0,0
								C-159.3,267.8-140.5,278.8-120.2,257.4z"/>
							
								<linearGradient id="SVGID_13_" gradientUnits="userSpaceOnUse" x1="-2115.717" y1="-153.2315" x2="-2075.3271" y2="-153.2315" gradientTransform="matrix(-0.9659 0.2588 0.2588 0.9659 -2121.4736 962.9973)">
								<stop  offset="0.45" style="stop-color:#EC1C24"/>
								<stop  offset="1" style="stop-color:#FFFFFF"/>
							</linearGradient>
							<path class="st17" d="M-120.3,257.5c-20.2,21.3-39,10.5-39,10.5l0,0c1.9,7.1,5.6,13.3,10.4,18.1l0,0
								C-148.8,286-127.1,286-120.3,257.5z"/>
						</g>
					</g>
				</g>
			</g>
		</g>
	</g>
	<g>
		<rect x="-207.6" y="325.8" class="st18" width="171.9" height="51.7"/>
	</g>
	<g>
		<path class="st0" d="M-183.6,355.5c0,2-0.6,3.5-1.8,4.5s-3,1.6-5.2,1.6h-1.7v6.5h-3.9v-18.3h5.8c2.2,0,3.9,0.5,5.1,1.4
			C-184.1,352.2-183.6,353.6-183.6,355.5z M-192.3,358.4h1.3c1.2,0,2.1-0.2,2.7-0.7c0.6-0.5,0.9-1.2,0.9-2.1s-0.2-1.6-0.7-2
			s-1.3-0.7-2.3-0.7h-1.8L-192.3,358.4L-192.3,358.4z"/>
		<path class="st0" d="M-172.2,368.1l-0.7-1.9h-0.1c-0.6,0.8-1.3,1.4-2,1.7c-0.7,0.3-1.6,0.5-2.7,0.5c-1.3,0-2.4-0.4-3.2-1.2
			c-0.8-0.8-1.2-1.9-1.2-3.3c0-1.5,0.5-2.6,1.6-3.3c1-0.7,2.6-1.1,4.7-1.2l2.4-0.1v-0.6c0-1.4-0.7-2.1-2.2-2.1c-1.1,0-2.4,0.3-3.9,1
			l-1.3-2.6c1.6-0.8,3.4-1.3,5.4-1.3c1.9,0,3.3,0.4,4.3,1.2c1,0.8,1.5,2.1,1.5,3.7v9.3h-2.6V368.1z M-173.3,361.6h-1.5
			c-1.1,0-1.9,0.2-2.5,0.6c-0.5,0.4-0.8,0.9-0.8,1.7c0,1.1,0.6,1.6,1.9,1.6c0.9,0,1.6-0.3,2.1-0.8s0.8-1.2,0.8-2V361.6z"/>
		<path class="st0" d="M-158.4,353.9c0.5,0,0.9,0,1.3,0.1l-0.3,3.6c-0.3-0.1-0.7-0.1-1.1-0.1c-1.2,0-2.2,0.3-2.8,0.9s-1,1.5-1,2.6
			v7.1h-3.8v-14h2.9l0.6,2.4h0.2c0.4-0.8,1-1.4,1.8-1.9C-160.1,354.1-159.3,353.9-158.4,353.9z"/>
		<path class="st0" d="M-149.3,365.3c0.7,0,1.5-0.1,2.4-0.4v2.8c-1,0.4-2.1,0.6-3.5,0.6c-1.5,0-2.6-0.4-3.3-1.2s-1-1.9-1-3.5v-6.7
			h-1.8v-1.6l2.1-1.3l1.1-3h2.4v3h3.9v2.9h-3.9v6.7c0,0.5,0.2,0.9,0.5,1.2C-150.2,365.2-149.8,365.3-149.3,365.3z"/>
		<path class="st0" d="M-144.9,350.5c0-1.2,0.7-1.9,2.1-1.9c1.4,0,2.1,0.6,2.1,1.9c0,0.6-0.2,1.1-0.5,1.4s-0.9,0.5-1.6,0.5
			C-144.2,352.4-144.9,351.8-144.9,350.5z M-140.9,368.1h-3.8v-14h3.8V368.1z"/>
		<path class="st0" d="M-131.9,368.4c-4.4,0-6.5-2.4-6.5-7.2c0-2.4,0.6-4.2,1.8-5.5s2.9-1.9,5.1-1.9c1.6,0,3.1,0.3,4.4,1l-1.1,3
			c-0.6-0.2-1.2-0.4-1.7-0.6s-1-0.2-1.6-0.2c-2,0-3,1.4-3,4.2c0,2.7,1,4.1,3,4.1c0.7,0,1.4-0.1,2-0.3c0.6-0.2,1.3-0.5,1.9-0.9v3.3
			c-0.6,0.4-1.2,0.7-1.9,0.8C-130.1,368.3-130.9,368.4-131.9,368.4z"/>
		<path class="st0" d="M-125.2,350.5c0-1.2,0.7-1.9,2.1-1.9s2.1,0.6,2.1,1.9c0,0.6-0.2,1.1-0.5,1.4s-0.9,0.5-1.6,0.5
			C-124.5,352.4-125.2,351.8-125.2,350.5z M-121.2,368.1h-3.8v-14h3.8V368.1z"/>
		<path class="st0" d="M-110.1,368.4c-1.6,0-2.9-0.6-3.9-1.8h-0.2c0.1,1.2,0.2,1.8,0.2,2v5.7h-3.8v-20.2h3.1l0.5,1.8h0.2
			c0.9-1.4,2.2-2.1,4-2.1c1.7,0,2.9,0.6,3.9,1.9s1.4,3,1.4,5.3c0,1.5-0.2,2.8-0.7,3.9s-1.1,1.9-1.9,2.5S-109,368.4-110.1,368.4z
			 M-111.3,356.9c-0.9,0-1.6,0.3-2.1,0.9c-0.4,0.6-0.7,1.5-0.7,2.9v0.4c0,1.5,0.2,2.6,0.7,3.2s1.2,1,2.1,1c1.7,0,2.6-1.4,2.6-4.2
			c0-1.4-0.2-2.4-0.6-3.1C-109.7,357.3-110.4,356.9-111.3,356.9z"/>
		<path class="st0" d="M-93.4,368.1l-0.7-1.9h-0.1c-0.6,0.8-1.3,1.4-2,1.7c-0.7,0.3-1.6,0.5-2.7,0.5c-1.3,0-2.4-0.4-3.2-1.2
			c-0.8-0.8-1.2-1.9-1.2-3.3c0-1.5,0.5-2.6,1.6-3.3s2.6-1.1,4.7-1.2l2.4-0.1v-0.6c0-1.4-0.7-2.1-2.2-2.1c-1.1,0-2.4,0.3-3.9,1
			l-1.3-2.6c1.6-0.8,3.4-1.3,5.4-1.3c1.9,0,3.3,0.4,4.3,1.2c1,0.8,1.5,2.1,1.5,3.7v9.3h-2.6V368.1z M-94.5,361.6H-96
			c-1.1,0-1.9,0.2-2.5,0.6c-0.5,0.4-0.8,0.9-0.8,1.7c0,1.1,0.6,1.6,1.9,1.6c0.9,0,1.6-0.3,2.1-0.8s0.8-1.2,0.8-2V361.6z"/>
		<path class="st0" d="M-74.5,368.1h-3.8v-8.2c0-1-0.2-1.8-0.5-2.3c-0.4-0.5-0.9-0.8-1.7-0.8c-1.1,0-1.8,0.4-2.3,1.1
			s-0.7,1.9-0.7,3.5v6.6h-3.8v-14h2.9l0.5,1.8h0.2c0.4-0.7,1-1.2,1.8-1.5c0.7-0.3,1.6-0.5,2.5-0.5c1.6,0,2.9,0.4,3.7,1.3
			c0.8,0.9,1.3,2.2,1.3,3.8L-74.5,368.1L-74.5,368.1z"/>
		<path class="st0" d="M-65.3,365.3c0.7,0,1.5-0.1,2.4-0.4v2.8c-1,0.4-2.1,0.6-3.5,0.6c-1.5,0-2.6-0.4-3.3-1.2c-0.7-0.8-1-1.9-1-3.5
			v-6.7h-1.8v-1.6l2.1-1.3l1.1-3h2.4v3h3.9v2.9h-4v6.7c0,0.5,0.2,0.9,0.5,1.2S-65.8,365.3-65.3,365.3z"/>
		<path class="st0" d="M-54.4,368.4c-2.3,0-4-0.6-5.3-1.9s-1.9-3-1.9-5.3s0.6-4.2,1.8-5.4c1.2-1.3,2.8-1.9,4.9-1.9
			c2,0,3.5,0.6,4.6,1.7s1.7,2.7,1.7,4.7v1.9h-9c0,1.1,0.4,1.9,1,2.5s1.4,0.9,2.5,0.9c0.8,0,1.6-0.1,2.4-0.3c0.8-0.2,1.5-0.5,2.4-0.8
			v3c-0.7,0.3-1.4,0.6-2.1,0.7C-52.4,368.3-53.3,368.4-54.4,368.4z M-54.9,356.6c-0.8,0-1.4,0.3-1.9,0.8s-0.7,1.2-0.8,2.2h5.4
			c0-0.9-0.3-1.7-0.7-2.2C-53.5,356.8-54.1,356.6-54.9,356.6z"/>
	</g>
	<g>
		<path class="st0" d="M-191.7,336.2c-1.3,0-2.3,0.4-3,1.3s-1.1,2-1.1,3.5s0.4,2.7,1.1,3.5c0.7,0.8,1.7,1.2,3,1.2
			c0.8,0,1.7-0.1,2.8-0.4v1.2c-0.8,0.3-1.8,0.5-3,0.5c-1.7,0-3-0.5-4-1.6c-0.9-1-1.4-2.5-1.4-4.4c0-1.2,0.2-2.2,0.7-3.1
			c0.4-0.9,1.1-1.6,1.9-2.1s1.8-0.7,3-0.7s2.3,0.2,3.2,0.7l-0.6,1.2C-190,336.4-190.8,336.2-191.7,336.2z"/>
		<path class="st0" d="M-187.1,335.7c0-0.3,0.1-0.5,0.2-0.7c0.1-0.1,0.3-0.2,0.6-0.2c0.2,0,0.4,0.1,0.5,0.2c0.2,0.1,0.2,0.4,0.2,0.7
			s-0.1,0.5-0.2,0.7c-0.2,0.1-0.3,0.2-0.5,0.2s-0.4-0.1-0.6-0.2C-187.1,336.2-187.1,336-187.1,335.7z M-185.7,346.8h-1.3v-8.7h1.3
			V346.8z"/>
		<path class="st0" d="M-177.4,345.6L-177.4,345.6c-0.7,0.9-1.6,1.3-2.8,1.3c-1.1,0-2-0.4-2.7-1.2c-0.6-0.8-0.9-1.9-0.9-3.3
			s0.3-2.6,1-3.3c0.6-0.8,1.5-1.2,2.7-1.2s2.1,0.4,2.7,1.3h0.1l-0.1-0.6V338v-3.5h1.3v12.4h-1.1L-177.4,345.6z M-180,345.8
			c0.9,0,1.6-0.2,2-0.7s0.6-1.3,0.6-2.4v-0.3c0-1.2-0.2-2.1-0.6-2.6c-0.4-0.5-1.1-0.8-2-0.8c-0.8,0-1.4,0.3-1.8,0.9
			c-0.4,0.6-0.6,1.5-0.6,2.5c0,1.1,0.2,2,0.6,2.5C-181.4,345.5-180.8,345.8-180,345.8z"/>
		<path class="st0" d="M-168.4,346.8l-0.3-1.2h-0.1c-0.4,0.5-0.9,0.9-1.3,1.1s-1,0.3-1.6,0.3c-0.9,0-1.5-0.2-2-0.7
			c-0.5-0.4-0.7-1.1-0.7-1.9c0-1.8,1.4-2.7,4.2-2.8h1.5v-0.5c0-0.7-0.1-1.2-0.4-1.5c-0.3-0.3-0.8-0.5-1.4-0.5
			c-0.7,0-1.5,0.2-2.5,0.7l-0.4-1c0.4-0.2,0.9-0.4,1.4-0.5s1-0.2,1.5-0.2c1,0,1.8,0.2,2.3,0.7s0.8,1.2,0.8,2.2v5.9h-1V346.8z
			 M-171.4,345.8c0.8,0,1.5-0.2,1.9-0.7c0.5-0.5,0.7-1.1,0.7-1.9v-0.8l-1.3,0.1c-1,0-1.8,0.2-2.3,0.5s-0.7,0.7-0.7,1.3
			c0,0.5,0.1,0.8,0.4,1.1S-171.9,345.8-171.4,345.8z"/>
		<path class="st0" d="M-159.2,345.6L-159.2,345.6c-0.7,0.9-1.6,1.3-2.8,1.3c-1.1,0-2-0.4-2.7-1.2c-0.6-0.8-0.9-1.9-0.9-3.3
			s0.3-2.6,1-3.3c0.6-0.8,1.5-1.2,2.7-1.2s2.1,0.4,2.7,1.3h0.1l-0.1-0.6V338v-3.5h1.3v12.4h-1.1L-159.2,345.6z M-161.8,345.8
			c0.9,0,1.6-0.2,2-0.7s0.6-1.3,0.6-2.4v-0.3c0-1.2-0.2-2.1-0.6-2.6c-0.4-0.5-1.1-0.8-2-0.8c-0.8,0-1.4,0.3-1.8,0.9
			c-0.4,0.6-0.6,1.5-0.6,2.5c0,1.1,0.2,2,0.6,2.5C-163.2,345.5-162.6,345.8-161.8,345.8z"/>
		<path class="st0" d="M-151.9,346.9c-1.3,0-2.3-0.4-3-1.2c-0.7-0.8-1.1-1.9-1.1-3.3s0.3-2.5,1-3.3s1.6-1.2,2.8-1.2
			c1.1,0,2,0.4,2.6,1.1s1,1.7,1,2.8v0.8h-6c0,1,0.3,1.8,0.8,2.3s1.2,0.8,2.1,0.8c0.9,0,1.9-0.2,2.8-0.6v1.2
			c-0.5,0.2-0.9,0.3-1.3,0.4C-150.8,346.9-151.3,346.9-151.9,346.9z M-152.2,339c-0.7,0-1.3,0.2-1.7,0.7s-0.7,1.1-0.7,1.9h4.6
			c0-0.8-0.2-1.5-0.6-1.9C-151,339.2-151.5,339-152.2,339z"/>
		<path class="st0" d="M-141.2,344.4c0,0.8-0.3,1.4-0.9,1.9c-0.6,0.4-1.5,0.7-2.5,0.7c-1.2,0-2.1-0.2-2.7-0.5v-1.2
			c0.4,0.2,0.9,0.4,1.3,0.5s0.9,0.2,1.4,0.2c0.7,0,1.2-0.1,1.6-0.3c0.4-0.2,0.6-0.6,0.6-1c0-0.3-0.1-0.6-0.4-0.9
			c-0.3-0.2-0.9-0.5-1.7-0.9c-0.8-0.3-1.4-0.6-1.7-0.8c-0.3-0.2-0.6-0.5-0.8-0.8s-0.3-0.6-0.3-1c0-0.7,0.3-1.3,0.9-1.7
			c0.6-0.4,1.4-0.6,2.4-0.6c0.9,0,1.9,0.2,2.7,0.6l-0.5,1.1c-0.9-0.4-1.7-0.5-2.4-0.5c-0.6,0-1.1,0.1-1.4,0.3
			c-0.3,0.2-0.5,0.5-0.5,0.8c0,0.2,0.1,0.4,0.2,0.6s0.3,0.3,0.6,0.5s0.8,0.4,1.5,0.6c1,0.4,1.7,0.8,2.1,1.1
			C-141.4,343.3-141.2,343.8-141.2,344.4z"/>
		<path class="st0" d="M-128.9,343.7c0,1-0.4,1.8-1.1,2.4c-0.7,0.6-1.7,0.9-3,0.9c-1.4,0-2.4-0.2-3.2-0.5v-1.3
			c0.5,0.2,1,0.4,1.6,0.5s1.1,0.2,1.7,0.2c0.9,0,1.6-0.2,2-0.5s0.7-0.8,0.7-1.4c0-0.4-0.1-0.7-0.2-1c-0.2-0.3-0.4-0.5-0.8-0.7
			s-1-0.5-1.7-0.7c-1.1-0.4-1.9-0.8-2.3-1.4c-0.5-0.5-0.7-1.2-0.7-2.1s0.3-1.6,1-2.1s1.6-0.8,2.7-0.8c1.2,0,2.2,0.2,3.2,0.6
			l-0.4,1.2c-1-0.4-1.9-0.6-2.8-0.6c-0.7,0-1.3,0.2-1.7,0.5s-0.6,0.7-0.6,1.3c0,0.4,0.1,0.7,0.2,1c0.1,0.3,0.4,0.5,0.8,0.7
			c0.4,0.2,0.9,0.5,1.6,0.7c1.2,0.4,2.1,0.9,2.5,1.4C-129.1,342.2-128.9,342.9-128.9,343.7z"/>
		<path class="st0" d="M-125.9,338.1v5.7c0,0.7,0.2,1.2,0.5,1.6s0.8,0.5,1.5,0.5c0.9,0,1.6-0.2,2-0.7s0.6-1.3,0.6-2.4v-4.6h1.3v8.7
			h-1.1l-0.2-1.2h-0.1c-0.3,0.4-0.6,0.8-1.1,1s-1,0.3-1.6,0.3c-1.1,0-1.9-0.3-2.4-0.8s-0.8-1.3-0.8-2.4v-5.7H-125.9z"/>
		<path class="st0" d="M-111.9,344.4c0,0.8-0.3,1.4-0.9,1.9c-0.6,0.4-1.5,0.7-2.5,0.7c-1.2,0-2.1-0.2-2.7-0.5v-1.2
			c0.4,0.2,0.9,0.4,1.3,0.5s0.9,0.2,1.4,0.2c0.7,0,1.2-0.1,1.6-0.3s0.6-0.6,0.6-1c0-0.3-0.1-0.6-0.4-0.9c-0.3-0.2-0.9-0.5-1.7-0.9
			c-0.8-0.3-1.4-0.6-1.7-0.8s-0.6-0.5-0.8-0.8s-0.2-0.6-0.2-1c0-0.7,0.3-1.3,0.9-1.7c0.6-0.4,1.4-0.6,2.4-0.6c0.9,0,1.9,0.2,2.8,0.6
			l-0.5,1.1c-0.9-0.4-1.7-0.5-2.4-0.5c-0.6,0-1.1,0.1-1.4,0.3c-0.3,0.2-0.5,0.5-0.5,0.8c0,0.2,0.1,0.4,0.2,0.6s0.3,0.3,0.6,0.5
			c0.3,0.1,0.8,0.4,1.5,0.6c1,0.4,1.7,0.8,2.1,1.1C-112.1,343.3-111.9,343.8-111.9,344.4z"/>
		<path class="st0" d="M-107.4,345.8c0.2,0,0.5,0,0.7-0.1c0.2,0,0.4-0.1,0.5-0.1v1c-0.1,0.1-0.4,0.1-0.6,0.2c-0.3,0-0.5,0.1-0.8,0.1
			c-1.7,0-2.5-0.9-2.5-2.7V339h-1.2v-0.6l1.2-0.5l0.6-1.9h0.8v2h2.5v1h-2.5v5.1c0,0.5,0.1,0.9,0.4,1.2
			C-108.1,345.7-107.8,345.8-107.4,345.8z"/>
		<path class="st0" d="M-101.2,346.9c-1.3,0-2.3-0.4-3-1.2s-1.1-1.9-1.1-3.3s0.3-2.5,1-3.3s1.6-1.2,2.8-1.2c1.1,0,2,0.4,2.6,1.1
			s1,1.7,1,2.8v0.8h-6c0,1,0.3,1.8,0.8,2.3s1.2,0.8,2.1,0.8s1.9-0.2,2.8-0.6v1.2c-0.5,0.2-0.9,0.3-1.3,0.4
			C-100.1,346.9-100.6,346.9-101.2,346.9z M-101.5,339c-0.7,0-1.3,0.2-1.7,0.7s-0.7,1.1-0.7,1.9h4.6c0-0.8-0.2-1.5-0.6-1.9
			C-100.3,339.2-100.8,339-101.5,339z"/>
		<path class="st0" d="M-90.2,346.8v-5.6c0-0.7-0.2-1.2-0.5-1.6c-0.3-0.3-0.8-0.5-1.5-0.5c-0.9,0-1.6,0.2-2,0.7s-0.6,1.3-0.6,2.4
			v4.6h-1.3v-8.7h1.1l0.2,1.2h0.1c0.3-0.4,0.6-0.8,1.1-1s1-0.4,1.6-0.4c1,0,1.8,0.3,2.4,0.8c0.5,0.5,0.8,1.3,0.8,2.4v5.7H-90.2z"/>
		<path class="st0" d="M-83.7,345.8c0.2,0,0.5,0,0.7-0.1c0.2,0,0.4-0.1,0.5-0.1v1c-0.1,0.1-0.4,0.1-0.6,0.2c-0.3,0-0.5,0.1-0.8,0.1
			c-1.7,0-2.5-0.9-2.5-2.7V339h-1.2v-0.6l1.2-0.5l0.6-1.9h0.8v2h2.5v1H-85v5.1c0,0.5,0.1,0.9,0.4,1.2
			C-84.5,345.7-84.2,345.8-83.7,345.8z"/>
		<path class="st0" d="M-75.8,346.8l-0.3-1.2h-0.1c-0.4,0.5-0.9,0.9-1.3,1.1s-1,0.3-1.6,0.3c-0.9,0-1.5-0.2-2-0.7s-0.7-1.1-0.7-1.9
			c0-1.8,1.4-2.7,4.2-2.8h1.5v-0.5c0-0.7-0.1-1.2-0.4-1.5s-0.8-0.5-1.4-0.5c-0.7,0-1.5,0.2-2.5,0.7l-0.4-1c0.4-0.2,0.9-0.4,1.4-0.5
			s1-0.2,1.5-0.2c1,0,1.8,0.2,2.3,0.7s0.8,1.2,0.8,2.2v5.9h-1V346.8z M-78.8,345.8c0.8,0,1.5-0.2,1.9-0.7s0.7-1.1,0.7-1.9v-0.8
			l-1.3,0.1c-1,0-1.8,0.2-2.3,0.5s-0.7,0.7-0.7,1.3c0,0.5,0.1,0.8,0.4,1.1C-79.7,345.7-79.3,345.8-78.8,345.8z M-79.1,336.7
			c0.3-0.3,0.5-0.7,0.8-1.2s0.5-0.9,0.7-1.2h1.6v0.2c-0.2,0.3-0.6,0.8-1,1.3c-0.5,0.5-0.9,0.9-1.2,1.2h-0.9V336.7z"/>
		<path class="st0" d="M-70.6,346.8l-3.3-8.7h1.4l1.9,5.2c0.4,1.2,0.7,2,0.7,2.4h0.1c0.1-0.3,0.2-0.9,0.6-1.7c0.3-0.9,1-2.8,2.1-5.8
			h1.4l-3.3,8.7h-1.6V346.8z"/>
		<path class="st0" d="M-61.1,346.9c-1.3,0-2.3-0.4-3-1.2c-0.7-0.8-1.1-1.9-1.1-3.3s0.3-2.5,1-3.3c0.7-0.8,1.6-1.2,2.8-1.2
			c1.1,0,2,0.4,2.6,1.1s1,1.7,1,2.8v0.8h-6c0,1,0.3,1.8,0.8,2.3s1.2,0.8,2.1,0.8c0.9,0,1.9-0.2,2.8-0.6v1.2
			c-0.5,0.2-0.9,0.3-1.3,0.4C-60,346.9-60.5,346.9-61.1,346.9z M-61.5,339c-0.7,0-1.3,0.2-1.7,0.7s-0.7,1.1-0.7,1.9h4.6
			c0-0.8-0.2-1.5-0.6-1.9C-60.3,339.2-60.8,339-61.5,339z"/>
		<path class="st0" d="M-56.2,335.7c0-0.3,0.1-0.5,0.2-0.7s0.3-0.2,0.6-0.2c0.2,0,0.4,0.1,0.5,0.2c0.2,0.1,0.2,0.4,0.2,0.7
			s-0.1,0.5-0.2,0.7c-0.2,0.1-0.3,0.2-0.5,0.2s-0.4-0.1-0.6-0.2S-56.2,336-56.2,335.7z M-54.8,346.8h-1.3v-8.7h1.3V346.8z"/>
		<path class="st0" d="M-46.7,344.4c0,0.8-0.3,1.4-0.9,1.9c-0.6,0.4-1.5,0.7-2.5,0.7c-1.2,0-2.1-0.2-2.7-0.5v-1.2
			c0.4,0.2,0.9,0.4,1.3,0.5s0.9,0.2,1.4,0.2c0.7,0,1.2-0.1,1.6-0.3s0.6-0.6,0.6-1c0-0.3-0.1-0.6-0.4-0.9c-0.3-0.2-0.9-0.5-1.7-0.9
			c-0.8-0.3-1.4-0.6-1.7-0.8s-0.6-0.5-0.8-0.8s-0.2-0.6-0.2-1c0-0.7,0.3-1.3,0.9-1.7c0.6-0.4,1.4-0.6,2.4-0.6c0.9,0,1.9,0.2,2.8,0.6
			l-0.5,1.1c-0.9-0.4-1.7-0.5-2.4-0.5c-0.6,0-1.1,0.1-1.4,0.3c-0.3,0.2-0.5,0.5-0.5,0.8c0,0.2,0.1,0.4,0.2,0.6
			c0.1,0.2,0.3,0.3,0.6,0.5c0.3,0.1,0.8,0.4,1.5,0.6c1,0.4,1.7,0.8,2.1,1.1C-46.9,343.3-46.7,343.8-46.7,344.4z"/>
	</g>
</g>
</svg>
