<?xml version="1.0" encoding="utf-8"?>
<!-- Generator: Adobe Illustrator 19.0.0, SVG Export Plug-In . SVG Version: 6.00 Build 0)  -->
<svg version="1.1" id="Layer_1" xmlns="http://www.w3.org/2000/svg" xmlns:xlink="http://www.w3.org/1999/xlink" x="0px" y="0px"
	 viewBox="0 0 179.8 130.3" style="enable-background:new 0 0 179.8 130.3;" xml:space="preserve">
<style type="text/css">
	.st0{fill:url(#SVGID_1_);}
	.st1{fill:url(#SVGID_2_);}
	.st2{fill:#FFFFFF;}
</style>
<g>
	<g>
		<linearGradient id="SVGID_1_" gradientUnits="userSpaceOnUse" x1="53.4749" y1="41.7868" x2="153.1478" y2="41.7868">
			<stop  offset="3.168850e-03" style="stop-color:#FA7A00"/>
			<stop  offset="1" style="stop-color:#FFC400"/>
		</linearGradient>
		<path class="st0" d="M153.1,41.8c0,5.4-1,10.7-3.1,15.7c-2.1,5.2-5.2,9.8-9.2,13.8c-4,4-8.6,7.1-13.8,9.2c-5,2-10.3,3.1-15.7,3.1
			c-5.4,0-10.7-1-15.7-3.1c-5.2-2.1-9.8-5.2-13.8-9.2c0,0-15.6-15.6-18.8-19l0,0l-9.1-8.8c-1.5-1.5,1.4-4.4,2.9-2.9l7.4,7.2l1.2-0.9
			l-9.4-11c-1.5-1.8,2-4.6,3.5-2.9l9.6,11.2l1-0.8l-8.2-13c-1.2-2,2.7-4.3,3.9-2.3l8,12.7l0.6-0.4l-4.3-11.1
			c-0.8-2.1,3.7-3.8,4.3-1.6c1.4,4.8,2.7,8.4,5.6,15.8c0.6-2.3,1.5-4.6,2.6-7.2c1.1-2.6,6-0.4,5.2,1.7c-1.5,4.3-3.6,7.6-3.8,12.1
			l9.5,9.5c2.4,2.4,5.2,4.2,8.2,5.4c3,1.2,6.2,1.8,9.5,1.8c3.3,0,6.4-0.6,9.4-1.8c3.1-1.3,5.9-3.1,8.3-5.5c2.4-2.4,4.3-5.2,5.5-8.3
			c1.2-3,1.8-6.2,1.8-9.4c0-3.3-0.6-6.4-1.8-9.4c-1.3-3.1-3.1-5.9-5.5-8.3c-2.4-2.4-5.2-4.3-8.3-5.5c-3-1.2-6.2-1.8-9.4-1.8
			c-4.6,0-8.3-3.7-8.3-8.3c0-4.6,3.7-8.3,8.3-8.3c5.4,0,10.7,1,15.7,3.1c5.2,2.1,9.8,5.2,13.8,9.2c4,4,7.1,8.6,9.2,13.8
			C152.1,31.1,153.1,36.4,153.1,41.8z"/>
		<linearGradient id="SVGID_2_" gradientUnits="userSpaceOnUse" x1="24.7241" y1="41.7868" x2="124.398" y2="41.7868">
			<stop  offset="0" style="stop-color:#63D4D6"/>
			<stop  offset="3.918210e-02" style="stop-color:#62D2D6"/>
			<stop  offset="0.9913" style="stop-color:#45A2C9"/>
		</linearGradient>
		<path class="st1" d="M24.7,41.8c0-5.4,1-10.7,3.1-15.7c2.1-5.2,5.2-9.8,9.2-13.8c4-4,8.6-7.1,13.8-9.2C55.8,1,61.1,0,66.5,0
			c5.4,0,10.7,1,15.7,3.1c5.2,2.1,9.8,5.2,13.8,9.2c0,0,15.6,15.6,18.8,19l0,0l9.1,8.8c1.5,1.5-1.4,4.4-2.9,2.9l-7.4-7.2l-1.2,0.9
			l9.4,11c1.5,1.8-2,4.6-3.5,2.9l-9.6-11.2l-1,0.8l8.2,13c1.2,2-2.7,4.3-3.9,2.3l-8-12.7l-0.6,0.4l4.3,11.1c0.8,2.1-3.7,3.8-4.3,1.6
			c-1.4-4.8-2.7-8.4-5.6-15.8c-0.6,2.3-1.5,4.6-2.6,7.2c-1.1,2.6-6,0.4-5.2-1.7c1.5-4.3,3.6-7.6,3.8-12.1L84.2,24
			c-2.4-2.4-5.2-4.2-8.2-5.5c-3-1.2-6.2-1.8-9.4-1.8c-3.3,0-6.4,0.6-9.4,1.8c-3.1,1.3-5.9,3.1-8.3,5.5c-2.4,2.4-4.3,5.2-5.5,8.3
			c-1.2,3-1.8,6.2-1.8,9.4c0,3.3,0.6,6.4,1.8,9.4c1.3,3.1,3.1,5.9,5.5,8.3c2.4,2.4,5.2,4.2,8.3,5.5c3,1.2,6.2,1.8,9.4,1.8
			c4.6,0,8.3,3.7,8.3,8.3c0,4.6-3.7,8.3-8.3,8.3c-5.4,0-10.7-1-15.7-3.1c-5.2-2.1-9.8-5.2-13.8-9.2c-4-4-7.1-8.6-9.2-13.8
			C25.8,52.5,24.7,47.2,24.7,41.8z"/>
	</g>
	<g>
		<g>
			<g>
				<path class="st2" d="M68.1,118.9L68.1,118.9c0-6.2,4.7-11.3,11.3-11.3c3.3,0,5.5,0.9,7.3,2.2c0.5,0.4,0.9,1.1,0.9,1.9
					c0,1.3-1.1,2.3-2.4,2.3c-0.7,0-1.1-0.2-1.4-0.5c-1.3-1-2.7-1.6-4.4-1.6c-3.7,0-6.3,3-6.3,6.8v0.1c0,3.7,2.6,6.8,6.3,6.8
					c2,0,3.4-0.6,4.7-1.7c0.4-0.3,0.9-0.5,1.4-0.5c1.2,0,2.2,1,2.2,2.2c0,0.7-0.4,1.3-0.8,1.7c-2,1.7-4.3,2.7-7.7,2.7
					C72.8,130.1,68.1,125.1,68.1,118.9z"/>
				<path class="st2" d="M92.2,110.2c0-1.3,1.1-2.4,2.4-2.4c1.3,0,2.4,1.1,2.4,2.4v17.3c0,1.3-1.1,2.4-2.4,2.4
					c-1.3,0-2.4-1.1-2.4-2.4V110.2z M93.2,105.6c0-0.3,0.2-0.6,0.3-0.8l1.7-2.7c0.4-0.7,1-1.1,1.8-1.1c1.1,0,2.6,0.7,2.6,1.4
					c0,0.4-0.2,0.8-0.6,1.1l-1.9,1.8c-0.9,0.8-1.6,1-2.7,1C93.7,106.4,93.2,106.1,93.2,105.6z"/>
				<path class="st2" d="M108.2,128.2l-7-16.9c-0.2-0.4-0.3-0.7-0.3-1.1c0-1.3,1.1-2.4,2.4-2.4c1.2,0,2.1,0.7,2.4,1.7l5.4,14.1
					l5.5-14.2c0.3-0.8,1.1-1.5,2.3-1.5c1.3,0,2.4,1,2.4,2.3c0,0.4-0.1,0.8-0.2,1.1l-7.1,17c-0.5,1.2-1.4,1.9-2.7,1.9h-0.3
					C109.6,130,108.7,129.3,108.2,128.2z"/>
				<path class="st2" d="M125.1,110.2c0-1.3,1.1-2.4,2.4-2.4c1.3,0,2.4,1.1,2.4,2.4v17.3c0,1.3-1.1,2.4-2.4,2.4
					c-1.3,0-2.4-1.1-2.4-2.4V110.2z"/>
				<path class="st2" d="M134.4,118.9L134.4,118.9c0-6.2,4.7-11.3,11.3-11.3c3.3,0,5.5,0.9,7.3,2.2c0.5,0.4,0.9,1.1,0.9,1.9
					c0,1.3-1.1,2.3-2.4,2.3c-0.7,0-1.1-0.2-1.4-0.5c-1.3-1-2.7-1.6-4.4-1.6c-3.7,0-6.3,3-6.3,6.8v0.1c0,3.7,2.6,6.8,6.3,6.8
					c2,0,3.4-0.6,4.7-1.7c0.4-0.3,0.9-0.5,1.4-0.5c1.2,0,2.2,1,2.2,2.2c0,0.7-0.4,1.3-0.8,1.7c-2,1.7-4.3,2.7-7.7,2.7
					C139.1,130.1,134.4,125.1,134.4,118.9z"/>
				<path class="st2" d="M156.7,118.9L156.7,118.9c0-6.2,4.9-11.3,11.6-11.3c6.7,0,11.5,5,11.5,11.2v0.1c0,6.2-4.9,11.2-11.6,11.2
					C161.5,130.1,156.7,125.1,156.7,118.9z M174.8,118.9L174.8,118.9c0-3.8-2.7-6.9-6.6-6.9c-3.9,0-6.5,3-6.5,6.8v0.1
					c0,3.7,2.7,6.8,6.6,6.8C172.1,125.7,174.8,122.6,174.8,118.9z"/>
			</g>
		</g>
		<g>
			<g>
				<path class="st2" d="M0.2,128.4l9-19.8c0.3-0.7,0.8-1.1,1.6-1.1h0.1c0.8,0,1.3,0.4,1.6,1.1l9,19.7c0.1,0.2,0.2,0.4,0.2,0.6
					c0,0.7-0.5,1.2-1.2,1.2c-0.6,0-1-0.4-1.2-0.9l-2.3-5.1H4.7l-2.3,5.2c-0.2,0.5-0.6,0.9-1.2,0.9c-0.6,0-1.1-0.5-1.1-1.1
					C0,128.9,0,128.7,0.2,128.4z M15.9,121.9l-5.1-11.4l-5.1,11.4H15.9z"/>
				<path class="st2" d="M26.5,109.1c0-0.7,0.6-1.3,1.2-1.3h7.1c5,0,8.3,2.7,8.3,7.1v0.1c0,4.8-4,7.3-8.8,7.3H29v6.7
					c0,0.7-0.6,1.3-1.3,1.3c-0.7,0-1.2-0.6-1.2-1.3V109.1z M34.5,119.9c3.7,0,6.1-2,6.1-4.9V115c0-3.2-2.4-4.8-6-4.8H29v9.8H34.5z"
					/>
				<path class="st2" d="M47.7,109.1c0-0.7,0.6-1.3,1.2-1.3h7.1c5,0,8.3,2.7,8.3,7.1v0.1c0,4.8-4,7.3-8.8,7.3h-5.4v6.7
					c0,0.7-0.6,1.3-1.3,1.3c-0.7,0-1.2-0.6-1.2-1.3V109.1z M55.7,119.9c3.7,0,6.1-2,6.1-4.9V115c0-3.2-2.4-4.8-6-4.8h-5.6v9.8H55.7z
					"/>
			</g>
		</g>
	</g>
</g>
</svg>
