<?xml version="1.0" encoding="utf-8"?>
<!-- Generator: Adobe Illustrator 19.0.0, SVG Export Plug-In . SVG Version: 6.00 Build 0)  -->
<svg version="1.1" id="Layer_1" xmlns="http://www.w3.org/2000/svg" xmlns:xlink="http://www.w3.org/1999/xlink" x="0px" y="0px"
	 viewBox="0 0 460 132.7" style="enable-background:new 0 0 460 132.7;" xml:space="preserve">
<style type="text/css">
	.st0{filter:url(#Adobe_OpacityMaskFilter);}
	.st1{clip-path:url(#SVGID_2_);fill:url(#SVGID_4_);}
	.st2{clip-path:url(#SVGID_2_);mask:url(#SVGID_3_);fill:url(#SVGID_5_);}
	.st3{fill:#4EB857;}
	.st4{filter:url(#Adobe_OpacityMaskFilter_1_);}
	.st5{clip-path:url(#SVGID_7_);fill:url(#SVGID_9_);}
	.st6{clip-path:url(#SVGID_7_);mask:url(#SVGID_8_);fill:url(#SVGID_10_);}
	.st7{fill:#FFFFFF;}
</style>
<g>
	<defs>
		<path id="SVGID_1_" d="M6.7,111.8c0,2.2,22.2,4,49.6,4c27.4,0,49.6-1.8,49.6-4s-22.2-4-49.6-4C28.9,107.8,6.7,109.6,6.7,111.8"/>
	</defs>
	<clipPath id="SVGID_2_">
		<use xlink:href="#SVGID_1_"  style="overflow:visible;"/>
	</clipPath>
	<defs>
		<filter id="Adobe_OpacityMaskFilter" filterUnits="userSpaceOnUse" x="6.7" y="107.8" width="99.2" height="8">
			<feColorMatrix  type="matrix" values="1 0 0 0 0  0 1 0 0 0  0 0 1 0 0  0 0 0 1 0"/>
		</filter>
	</defs>
	<mask maskUnits="userSpaceOnUse" x="6.7" y="107.8" width="99.2" height="8" id="SVGID_3_">
		<g class="st0">
			
				<radialGradient id="SVGID_4_" cx="-190.9362" cy="357.5413" r="1.0001" gradientTransform="matrix(49.6203 0 0 -3.999 9530.6318 1541.6119)" gradientUnits="userSpaceOnUse">
				<stop  offset="0" style="stop-color:#4D4D4D"/>
				<stop  offset="1" style="stop-color:#000000"/>
			</radialGradient>
			<rect x="6.7" y="107.8" class="st1" width="99.2" height="8"/>
		</g>
	</mask>
	
		<radialGradient id="SVGID_5_" cx="-190.9362" cy="357.5394" r="1.0001" gradientTransform="matrix(49.6203 0 0 -3.999 9530.6318 1541.6041)" gradientUnits="userSpaceOnUse">
		<stop  offset="0" style="stop-color:#000000"/>
		<stop  offset="1" style="stop-color:#000000"/>
	</radialGradient>
	<rect x="6.7" y="107.8" class="st2" width="99.2" height="8"/>
</g>
<path class="st3" d="M144.4,75.2c0,4.8-0.9,9.1-2.6,12.9c-1.7,3.9-4.1,7.1-7,9.8c-3,2.7-6.4,4.8-10.3,6.3c-3.9,1.5-8.1,2.2-12.5,2.2
	c-4.4,0-8.5-0.7-12.5-2.2c-3.9-1.5-7.4-3.6-10.3-6.3c-2.9-2.7-5.3-6-7-9.8c-1.7-3.9-2.6-8.2-2.6-12.9c0-4.8,0.9-9.1,2.6-12.9
	c1.7-3.8,4-7.1,7-9.7c2.9-2.7,6.4-4.7,10.3-6.1c3.9-1.4,8.1-2.1,12.5-2.1c4.5,0,8.6,0.7,12.5,2.1c3.9,1.4,7.3,3.4,10.3,6.1
	c3,2.7,5.3,5.9,7,9.7C143.5,66.2,144.4,70.5,144.4,75.2 M125.9,75.2c0-1.9-0.3-3.7-0.9-5.5c-0.6-1.8-1.5-3.4-2.7-4.7
	c-1.2-1.4-2.6-2.5-4.3-3.3c-1.7-0.9-3.7-1.3-6-1.3c-2.3,0-4.3,0.4-6,1.3c-1.7,0.9-3.1,2-4.3,3.3c-1.1,1.4-2,2.9-2.6,4.7
	c-0.6,1.8-0.9,3.6-0.9,5.5c0,1.9,0.3,3.7,0.9,5.5c0.6,1.8,1.5,3.4,2.6,4.9c1.2,1.4,2.6,2.6,4.3,3.5c1.7,0.9,3.7,1.3,6,1.3
	c2.3,0,4.3-0.4,6-1.3c1.7-0.9,3.2-2,4.3-3.5c1.2-1.4,2.1-3.1,2.6-4.9C125.6,78.9,125.9,77.1,125.9,75.2"/>
<g>
	<defs>
		<path id="SVGID_6_" d="M106.1,89c-1.7-0.9-3.2-2-4.3-3.5c-1.2-1.4-2.1-3.1-2.6-4.9c-0.6-1.8-0.9-3.6-0.9-5.5
			c0-1.9,0.3-3.7,0.9-5.5c0.6-1.8,1.4-3.4,2.6-4.7c1.1-1.4,2.6-2.5,4.3-3.3c1.7-0.9,3.7-1.3,6-1.3c2.3,0,4.3,0.4,6,1.3
			c1.7,0.9,3.2,2,4.3,3.3c1.2,1.4,2.1,2.9,2.7,4.7c0.6,1.8,0.9,3.6,0.9,5.5c0,1.9-0.3,3.7-0.9,5.5c-0.6,1.8-1.5,3.4-2.6,4.9
			c-1.2,1.4-2.6,2.6-4.3,3.5c-1.7,0.9-3.7,1.3-6,1.3C109.8,90.3,107.8,89.9,106.1,89 M99.5,46.5c-3.9,1.4-7.4,3.4-10.3,6.1
			c-2.9,2.7-5.3,5.9-7,9.7c-1.7,3.8-2.6,8.1-2.6,12.9s0.9,9.1,2.6,12.9c1.7,3.9,4,7.1,7,9.8c2.9,2.7,6.4,4.8,10.3,6.3
			c3.9,1.5,8.1,2.2,12.5,2.2c4.5,0,8.6-0.7,12.5-2.2c3.9-1.5,7.3-3.6,10.3-6.3c3-2.7,5.3-6,7-9.8c1.7-3.9,2.6-8.2,2.6-12.9
			s-0.9-9.1-2.6-12.9c-1.7-3.8-4.1-7.1-7-9.7c-3-2.7-6.4-4.7-10.3-6.1c-3.9-1.4-8.1-2.1-12.5-2.1C107.6,44.4,103.4,45.1,99.5,46.5"
			/>
	</defs>
	<clipPath id="SVGID_7_">
		<use xlink:href="#SVGID_6_"  style="overflow:visible;"/>
	</clipPath>
	<defs>
		<filter id="Adobe_OpacityMaskFilter_1_" filterUnits="userSpaceOnUse" x="48.8" y="12.3" width="126.4" height="126.4">
			<feColorMatrix  type="matrix" values="1 0 0 0 0  0 1 0 0 0  0 0 1 0 0  0 0 0 1 0"/>
		</filter>
	</defs>
	<mask maskUnits="userSpaceOnUse" x="48.8" y="12.3" width="126.4" height="126.4" id="SVGID_8_">
		<g class="st4">
			
				<linearGradient id="SVGID_9_" gradientUnits="userSpaceOnUse" x1="-190.953" y1="357.4193" x2="-189.953" y2="357.4193" gradientTransform="matrix(15.0647 17.0469 17.0469 -15.0647 -3120.3752 8696.7783)">
				<stop  offset="0" style="stop-color:#4D4D4D"/>
				<stop  offset="1" style="stop-color:#000000"/>
			</linearGradient>
			<polygon class="st5" points="116,12.3 175.2,79.3 108,138.6 48.8,71.6 			"/>
		</g>
	</mask>
	
		<linearGradient id="SVGID_10_" gradientUnits="userSpaceOnUse" x1="-190.9539" y1="357.4183" x2="-189.9539" y2="357.4183" gradientTransform="matrix(15.0647 17.0469 17.0469 -15.0647 -3120.3433 8696.7783)">
		<stop  offset="0" style="stop-color:#006A2F"/>
		<stop  offset="1" style="stop-color:#006A2F"/>
	</linearGradient>
	<polygon class="st6" points="116,12.3 175.2,79.3 108,138.6 48.8,71.6 	"/>
</g>
<path class="st3" d="M165.7,60.6v22.3c0,2.7,0.5,4.8,1.6,6.2c1.1,1.4,2.9,2.1,5.7,2.1c0.9,0,1.9-0.1,3-0.2c1.1-0.2,1.9-0.4,2.6-0.7
	l0.2,14.1c-1.3,0.5-3,0.9-5,1.2c-2,0.4-4.1,0.5-6.1,0.5c-3.9,0-7.2-0.5-9.8-1.5c-2.7-1-4.8-2.4-6.4-4.2c-1.6-1.8-2.8-4-3.5-6.6
	c-0.7-2.5-1.1-5.4-1.1-8.5V60.6h-9.4V46.3h9.3V30.9h18.9v15.3h13.7v14.3H165.7z"/>
<path class="st3" d="M238.5,75.2c0,4.8-0.9,9.1-2.6,12.9c-1.7,3.9-4.1,7.1-7,9.8c-3,2.7-6.4,4.8-10.3,6.3c-3.9,1.5-8.1,2.2-12.5,2.2
	c-4.4,0-8.5-0.7-12.5-2.2c-3.9-1.5-7.4-3.6-10.3-6.3c-2.9-2.7-5.3-6-7-9.8c-1.7-3.9-2.6-8.2-2.6-12.9c0-4.8,0.9-9.1,2.6-12.9
	c1.7-3.8,4-7.1,7-9.7c2.9-2.7,6.4-4.7,10.3-6.1c3.9-1.4,8.1-2.1,12.5-2.1c4.5,0,8.6,0.7,12.5,2.1c3.9,1.4,7.3,3.4,10.3,6.1
	c3,2.7,5.3,5.9,7,9.7C237.7,66.2,238.5,70.5,238.5,75.2 M220,75.2c0-1.9-0.3-3.7-0.9-5.5c-0.6-1.8-1.5-3.4-2.7-4.7
	c-1.2-1.4-2.6-2.5-4.3-3.3c-1.7-0.9-3.7-1.3-6-1.3c-2.3,0-4.3,0.4-6,1.3c-1.7,0.9-3.1,2-4.3,3.3c-1.1,1.4-2,2.9-2.6,4.7
	c-0.6,1.8-0.9,3.6-0.9,5.5c0,1.9,0.3,3.7,0.9,5.5c0.6,1.8,1.5,3.4,2.6,4.9c1.2,1.4,2.6,2.6,4.3,3.5c1.7,0.9,3.7,1.3,6,1.3
	c2.3,0,4.3-0.4,6-1.3c1.7-0.9,3.2-2,4.3-3.5c1.2-1.4,2.1-3.1,2.6-4.9C219.7,78.9,220,77.1,220,75.2"/>
<rect x="239.2" y="16.1" class="st7" width="19.6" height="88.5"/>
<path class="st7" d="M320.1,76.2v2.3c0,0.8,0,1.5-0.1,2.2h-42.3c0.2,1.6,0.6,3.1,1.5,4.5c0.8,1.3,1.9,2.5,3.2,3.5
	c1.3,1,2.7,1.7,4.3,2.3c1.6,0.5,3.3,0.8,5,0.8c3,0,5.6-0.6,7.7-1.7c2.1-1.1,3.8-2.6,5.2-4.4l13.4,8.4c-2.7,4-6.3,7-10.8,9.2
	c-4.5,2.1-9.7,3.2-15.6,3.2c-4.4,0-8.5-0.7-12.4-2c-3.9-1.4-7.3-3.4-10.2-6c-2.9-2.6-5.2-5.8-6.9-9.7c-1.7-3.8-2.5-8.2-2.5-13.1
	c0-4.8,0.8-9.1,2.5-12.9c1.6-3.9,3.9-7.1,6.7-9.8c2.8-2.7,6.1-4.8,10-6.3c3.8-1.5,8-2.2,12.4-2.2c4.3,0,8.2,0.7,11.8,2.2
	c3.6,1.4,6.7,3.5,9.3,6.3c2.6,2.7,4.6,6.1,6,10C319.3,66.7,320.1,71.2,320.1,76.2 M302.4,68.8c0-3-1-5.7-2.9-7.8
	c-1.9-2.2-4.8-3.3-8.6-3.3c-1.9,0-3.6,0.3-5.2,0.9c-1.6,0.6-2.9,1.4-4.1,2.4c-1.2,1-2.1,2.2-2.8,3.6c-0.7,1.4-1.1,2.8-1.2,4.3H302.4
	z"/>
<path class="st7" d="M382.1,99.1c0,5.7-0.8,10.7-2.5,14.9c-1.6,4.2-3.9,7.7-6.9,10.5c-3,2.8-6.6,4.8-10.8,6.2c-4.3,1.4-9,2-14.1,2
	c-5.2,0-10.4-0.8-15.9-2.3c-5.4-1.6-10.1-3.8-14.1-6.8l9.6-13.7c2.8,2.5,5.9,4.4,9.3,5.6c3.4,1.2,6.7,1.8,10,1.8
	c5.6,0,9.8-1.5,12.5-4.5c2.7-3,4-6.9,4-11.8v-3.5h-0.4c-1.8,2.3-4.2,4.2-7.3,5.6c-3,1.4-6.5,2.1-10.4,2.1c-4.5,0-8.4-0.8-11.8-2.4
	c-3.4-1.6-6.3-3.8-8.7-6.5c-2.4-2.7-4.2-5.9-5.4-9.5c-1.2-3.6-1.9-7.5-1.9-11.5c0-4.1,0.6-7.9,1.9-11.6c1.2-3.7,3.1-6.9,5.4-9.7
	c2.4-2.8,5.3-5.1,8.7-6.7c3.4-1.7,7.3-2.5,11.7-2.5c3.7,0,7.2,0.7,10.5,2.2c3.4,1.5,6.1,3.8,8.1,6.9h0.2v-7.5h18.2V99.1z
	 M363.9,75.1c0-2-0.3-3.8-1-5.6c-0.7-1.8-1.6-3.4-2.9-4.7c-1.2-1.4-2.7-2.4-4.5-3.2c-1.7-0.8-3.7-1.2-5.9-1.2
	c-2.2,0-4.1,0.4-5.8,1.2c-1.7,0.8-3.1,1.8-4.3,3.2c-1.2,1.3-2.1,2.9-2.7,4.7c-0.6,1.8-0.9,3.7-0.9,5.7c0,2,0.3,3.8,0.9,5.6
	c0.6,1.8,1.5,3.4,2.7,4.7c1.2,1.4,2.6,2.5,4.3,3.3c1.7,0.8,3.6,1.2,5.8,1.2c2.2,0,4.2-0.4,5.9-1.2c1.8-0.8,3.2-1.9,4.5-3.2
	c1.2-1.3,2.1-2.9,2.8-4.7C363.5,79,363.9,77.1,363.9,75.1"/>
<path class="st7" d="M384.8,54.2c3.4-3.3,7.4-5.7,12-7.4c4.6-1.6,9.2-2.5,14-2.5c4.9,0,9.1,0.6,12.5,1.8c3.4,1.2,6.1,3.1,8.3,5.6
	c2.1,2.5,3.6,5.7,4.6,9.6c1,3.9,1.5,8.5,1.5,13.8v29.4h-17.6v-6.2h-0.4c-1.5,2.4-3.7,4.3-6.7,5.6c-3,1.3-6.3,2-9.8,2
	c-2.3,0-4.8-0.3-7.3-0.9c-2.5-0.6-4.8-1.6-6.9-3c-2.1-1.4-3.8-3.3-5.1-5.6c-1.3-2.3-2-5.2-2-8.7c0-4.2,1.2-7.6,3.5-10.2
	c2.3-2.6,5.3-4.6,8.9-6c3.6-1.4,7.7-2.3,12.1-2.8c4.5-0.5,8.8-0.7,13-0.7v-0.9c0-2.9-1-5-3-6.4c-2-1.4-4.5-2-7.5-2
	c-2.7,0-5.4,0.6-7.9,1.8c-2.5,1.2-4.7,2.6-6.5,4.2L384.8,54.2z M420.1,79.2h-2.5c-2.1,0-4.2,0.1-6.4,0.3c-2.1,0.2-4.1,0.6-5.7,1.1
	c-1.7,0.5-3.1,1.3-4.2,2.4c-1.1,1.1-1.6,2.4-1.6,4.2c0,1.1,0.3,2,0.8,2.8c0.5,0.8,1.2,1.4,1.9,1.9c0.8,0.5,1.7,0.8,2.7,1
	c1,0.2,2,0.3,2.9,0.3c3.9,0,6.9-1.1,9-3.2c2.1-2.1,3.1-5.1,3.1-8.7V79.2z"/>
<rect x="440.5" y="16.1" class="st7" width="19.6" height="88.5"/>
<path class="st3" d="M139,14.4c0,0-35.5,33-62.1,74c0,0-10.1,17.8-25.4,17.8c-15.2,0-22.4-10.1-22.4-10.1L0,65.5l17.8-17.3
	l24.9,23.3c0,0,3,3.8,6.8,3.8c3.8,0,5.1-2.1,8.5-5.5c3.4-3.4,34-42.3,64.9-69.7C122.8,0,137.4,10.6,139,14.4"/>
<path class="st3" d="M44,21.1c0,6.7-5.4,12.1-12.1,12.1c-6.7,0-12.1-5.4-12.1-12.1C19.7,14.4,25.1,9,31.8,9C38.5,9,44,14.4,44,21.1"
	/>
<path class="st3" d="M82.6,16.9C80.9,12.3,76.5,9,71.2,9c-6.7,0-12.1,5.4-12.1,12.1c0,2.3,0.7,4.5,1.8,6.4L82.6,16.9z"/>
</svg>
